<svg xmlns="http://www.w3.org/2000/svg" xmlns:xlink="http://www.w3.org/1999/xlink" width="500" zoomAndPan="magnify" viewBox="0 0 375 374.999991" height="500" preserveAspectRatio="xMidYMid meet" version="1.0"><defs><g/><clipPath id="f9e36dee8b"><path d="M 88.296875 48.277344 L 287.046875 48.277344 L 287.046875 247 L 88.296875 247 Z M 88.296875 48.277344 " clip-rule="nonzero"/></clipPath><clipPath id="d6b453fca7"><path d="M 120 155 L 254.976562 155 L 254.976562 185 L 120 185 Z M 120 155 " clip-rule="nonzero"/></clipPath><clipPath id="6f278f053d"><path d="M 129 170 L 181 170 L 181 205.234375 L 129 205.234375 Z M 129 170 " clip-rule="nonzero"/></clipPath><clipPath id="56588daa00"><path d="M 194 170 L 246 170 L 246 205.234375 L 194 205.234375 Z M 194 170 " clip-rule="nonzero"/></clipPath><clipPath id="5d80a5e345"><path d="M 155.171875 85.554688 L 219.671875 85.554688 L 219.671875 147.761719 L 155.171875 147.761719 Z M 155.171875 85.554688 " clip-rule="nonzero"/></clipPath></defs><g clip-path="url(#f9e36dee8b)"><path fill="#11324d" d="M 187.671875 246.996094 L 186.4375 245.433594 C 183.601562 241.828125 179.820312 239.09375 175.507812 237.527344 L 171.6875 236.144531 C 163.597656 233.210938 158.007812 225.738281 157.394531 217.242188 L 118.117188 217.242188 L 118.117188 177.972656 C 109.597656 177.375 102.09375 171.78125 99.15625 163.671875 L 97.773438 159.851562 C 96.207031 155.535156 93.476562 151.757812 89.871094 148.921875 L 88.296875 147.683594 L 89.863281 146.449219 C 93.464844 143.617188 96.199219 139.832031 97.765625 135.523438 L 99.148438 131.703125 C 102.085938 123.59375 109.589844 117.996094 118.109375 117.402344 L 118.109375 78.125 L 157.382812 78.125 C 157.976562 69.609375 163.574219 62.105469 171.679688 59.164062 L 175.5 57.777344 C 179.816406 56.21875 183.59375 53.484375 186.429688 49.875 L 187.671875 48.308594 L 188.90625 49.875 C 191.742188 53.480469 195.523438 56.214844 199.832031 57.777344 L 203.652344 59.164062 C 211.761719 62.105469 217.355469 69.605469 217.953125 78.125 L 257.226562 78.125 L 257.226562 117.398438 C 265.742188 117.996094 273.246094 123.589844 276.1875 131.699219 L 277.570312 135.519531 C 279.136719 139.832031 281.863281 143.613281 285.472656 146.445312 L 287.039062 147.679688 L 285.472656 148.914062 C 281.867188 151.75 279.136719 155.53125 277.570312 159.84375 L 276.1875 163.664062 C 273.246094 171.773438 265.742188 177.371094 257.226562 177.964844 L 257.226562 217.234375 L 217.949219 217.234375 C 217.332031 225.730469 211.742188 233.203125 203.652344 236.136719 L 199.832031 237.519531 C 195.519531 239.085938 191.742188 241.816406 188.90625 245.425781 Z M 121.25 214.105469 L 160.472656 214.105469 L 160.472656 215.675781 C 160.472656 223.492188 165.410156 230.535156 172.757812 233.195312 L 176.578125 234.578125 C 180.839844 236.125 184.640625 238.683594 187.671875 242.03125 C 190.699219 238.683594 194.5 236.125 198.765625 234.578125 L 202.585938 233.195312 C 209.933594 230.53125 214.867188 223.492188 214.867188 215.675781 L 214.867188 214.105469 L 254.089844 214.105469 L 254.089844 174.882812 L 255.71875 174.882812 C 263.535156 174.882812 270.578125 169.945312 273.238281 162.597656 L 274.625 158.777344 C 276.171875 154.515625 278.730469 150.714844 282.078125 147.683594 C 278.730469 144.65625 276.171875 140.855469 274.625 136.59375 L 273.238281 132.769531 C 270.578125 125.425781 263.535156 120.488281 255.71875 120.488281 L 254.089844 120.488281 L 254.089844 81.261719 L 214.867188 81.261719 L 214.867188 79.632812 C 214.867188 71.816406 209.933594 64.773438 202.585938 62.113281 L 198.765625 60.726562 C 194.5 59.183594 190.699219 56.625 187.671875 53.273438 C 184.640625 56.625 180.839844 59.183594 176.578125 60.726562 L 172.757812 62.113281 C 165.410156 64.777344 160.472656 71.816406 160.472656 79.632812 L 160.472656 81.261719 L 121.25 81.261719 L 121.25 120.484375 L 119.621094 120.484375 C 111.808594 120.484375 104.765625 125.421875 102.101562 132.765625 L 100.71875 136.589844 C 99.171875 140.851562 96.613281 144.652344 93.265625 147.679688 C 96.613281 150.710938 99.171875 154.511719 100.71875 158.773438 L 102.097656 162.597656 C 104.761719 169.945312 111.804688 174.882812 119.617188 174.882812 L 121.246094 174.882812 L 121.246094 214.105469 Z M 121.25 214.105469 " fill-opacity="1" fill-rule="nonzero"/></g><g clip-path="url(#d6b453fca7)"><path fill="#11324d" d="M 187.476562 184.820312 L 187.476562 184.816406 L 187.480469 184.820312 L 236.78125 166.507812 C 242.113281 164.527344 240.722656 165.042969 254.957031 159.757812 L 253.140625 155.308594 L 187.476562 179.570312 L 121.816406 155.308594 L 120 159.757812 C 134.234375 165.042969 132.84375 164.527344 138.175781 166.507812 Z M 187.476562 184.820312 " fill-opacity="1" fill-rule="evenodd"/></g><path fill="#f8c91f" d="M 187.476562 175.832031 L 125.65625 152.988281 L 126.9375 149.46875 C 158.585938 160.320312 185.386719 147.480469 187.476562 175.832031 Z M 187.476562 175.832031 " fill-opacity="1" fill-rule="evenodd"/><path fill="#f8c91f" d="M 187.476562 175.832031 L 249.300781 152.988281 L 248.019531 149.46875 C 216.367188 160.320312 189.570312 147.480469 187.476562 175.832031 Z M 187.476562 175.832031 " fill-opacity="1" fill-rule="evenodd"/><g clip-path="url(#6f278f053d)"><path fill="#11324d" d="M 129.175781 205.226562 L 180.863281 186.03125 L 140.203125 170.929688 L 138.6875 175.113281 C 155.902344 179.398438 146.902344 189.6875 133.851562 191.261719 Z M 129.175781 205.226562 " fill-opacity="1" fill-rule="evenodd"/></g><g clip-path="url(#56588daa00)"><path fill="#11324d" d="M 245.78125 205.226562 L 194.09375 186.03125 L 234.753906 170.929688 L 236.269531 175.113281 C 219.050781 179.398438 228.054688 189.6875 241.101562 191.261719 Z M 245.78125 205.226562 " fill-opacity="1" fill-rule="evenodd"/></g><g clip-path="url(#5d80a5e345)"><path fill="#feb601" d="M 172.566406 132.96875 C 171.289062 133.425781 170.078125 133.886719 168.929688 134.34375 C 167.78125 134.800781 166.867188 135.226562 166.183594 135.628906 C 165.589844 136 165.058594 136.550781 164.59375 137.277344 C 164.125 138.007812 163.648438 138.769531 163.164062 139.574219 C 163.792969 139.832031 164.492188 140.027344 165.269531 140.171875 C 166.050781 140.316406 167.148438 140.386719 168.566406 140.386719 C 169.359375 140.386719 170.183594 140.152344 171.03125 139.679688 C 171.882812 139.207031 172.660156 138.558594 173.371094 137.730469 Z M 188.804688 113.164062 L 189.65625 117.921875 L 192.289062 131.125 C 192.519531 132.355469 192.851562 133.414062 193.292969 134.300781 C 193.730469 135.1875 194.222656 135.957031 194.757812 136.613281 C 195.039062 136.957031 195.425781 137.289062 195.90625 137.601562 C 196.390625 137.914062 196.921875 138.199219 197.5 138.457031 C 198.082031 138.714844 198.691406 138.929688 199.324219 139.101562 C 199.964844 139.273438 200.570312 139.355469 201.136719 139.355469 C 201.53125 139.355469 201.84375 139.273438 202.070312 139.101562 C 202.300781 138.929688 202.441406 138.457031 202.496094 137.6875 L 199.136719 121.910156 C 199.078125 121.339844 199.027344 120.851562 198.988281 120.449219 C 198.945312 120.054688 198.921875 119.734375 198.921875 119.511719 C 198.921875 118.566406 199.25 117.464844 199.902344 116.207031 C 200.1875 115.664062 200.507812 115.140625 200.859375 114.644531 C 201.214844 114.140625 201.589844 113.648438 201.984375 113.164062 C 202.042969 113.535156 202.191406 114.285156 202.433594 115.414062 C 202.675781 116.542969 203.003906 118.082031 203.429688 120.023438 C 203.6875 121.195312 203.90625 122.195312 204.09375 123.027344 C 204.277344 123.851562 204.445312 124.597656 204.601562 125.25 C 204.757812 125.910156 204.894531 126.507812 205.003906 127.054688 C 205.117188 127.597656 205.230469 128.167969 205.347656 128.765625 C 205.542969 129.800781 205.707031 130.671875 205.835938 131.386719 C 205.960938 132.097656 206.058594 132.722656 206.132812 133.25 C 206.203125 133.777344 206.25 134.242188 206.28125 134.640625 C 206.308594 135.042969 206.320312 135.410156 206.320312 135.757812 C 206.320312 136.84375 206.195312 137.8125 205.941406 138.675781 C 205.828125 139.070312 205.683594 139.535156 205.515625 140.066406 C 205.347656 140.597656 205.160156 141.128906 204.960938 141.675781 C 204.765625 142.21875 204.574219 142.738281 204.390625 143.234375 C 204.203125 143.738281 204.042969 144.15625 203.902344 144.503906 L 203.21875 146.089844 C 201.859375 146.03125 200.585938 145.894531 199.390625 145.683594 C 198.199219 145.464844 197.039062 145.164062 195.90625 144.761719 C 195 144.445312 194.25 144.011719 193.652344 143.453125 C 193.058594 142.894531 192.503906 142.203125 191.992188 141.375 C 191.371094 142.285156 190.730469 143.066406 190.082031 143.710938 C 189.425781 144.351562 188.703125 144.917969 187.914062 145.402344 C 187.574219 145.605469 187.175781 145.800781 186.722656 146.003906 C 186.265625 146.203125 185.785156 146.386719 185.277344 146.558594 C 184.765625 146.734375 184.257812 146.867188 183.746094 146.96875 C 183.234375 147.070312 182.753906 147.117188 182.300781 147.117188 C 181.394531 147.117188 180.507812 147.011719 179.640625 146.796875 C 178.777344 146.582031 177.964844 146.191406 177.199219 145.617188 C 176.464844 145.074219 175.863281 144.347656 175.410156 143.429688 C 174.957031 142.515625 174.574219 141.632812 174.261719 140.769531 C 173.101562 142.457031 171.742188 143.859375 170.183594 144.972656 C 168.59375 146.0625 167.046875 146.605469 165.546875 146.605469 C 163.960938 146.605469 162.527344 146.539062 161.253906 146.410156 C 159.976562 146.28125 158.886719 146.113281 157.976562 145.894531 C 157.070312 145.683594 156.375 145.414062 155.894531 145.101562 C 155.414062 144.789062 155.171875 144.445312 155.171875 144.074219 C 155.171875 143.476562 155.34375 142.742188 155.6875 141.886719 C 156.023438 141.027344 156.484375 140.128906 157.066406 139.1875 C 157.648438 138.246094 158.308594 137.300781 159.042969 136.355469 C 159.78125 135.410156 160.542969 134.554688 161.339844 133.785156 C 161.652344 133.472656 162.160156 133.097656 162.867188 132.671875 C 163.578125 132.242188 164.398438 131.777344 165.332031 131.277344 C 166.269531 130.777344 167.300781 130.257812 168.417969 129.710938 C 169.539062 129.167969 170.675781 128.625 171.84375 128.082031 C 171.785156 127.882812 171.71875 127.625 171.652344 127.3125 C 171.578125 127 171.507812 126.667969 171.4375 126.324219 C 171.367188 125.984375 171.308594 125.660156 171.265625 125.363281 C 171.226562 125.0625 171.203125 124.796875 171.203125 124.570312 C 171.203125 123.625 171.527344 122.539062 172.179688 121.308594 C 172.722656 120.339844 173.445312 119.308594 174.347656 118.226562 L 175.496094 125.25 C 175.808594 127.027344 176.117188 128.722656 176.414062 130.335938 C 176.710938 131.945312 177.011719 133.527344 177.328125 135.070312 C 177.664062 136.640625 178.25 137.835938 179.089844 138.652344 C 179.925781 139.46875 181.152344 139.871094 182.765625 139.871094 C 183.421875 139.871094 184.042969 139.765625 184.636719 139.550781 C 185.230469 139.339844 185.730469 139.085938 186.128906 138.796875 C 186.46875 138.574219 186.871094 138.238281 187.335938 137.792969 C 187.808594 137.351562 188.324219 136.703125 188.890625 135.84375 L 186.378906 124.140625 C 186.265625 123.679688 186.183594 123.265625 186.128906 122.898438 C 186.070312 122.523438 186.015625 122.195312 185.953125 121.910156 C 185.84375 121.339844 185.765625 120.851562 185.722656 120.449219 C 185.679688 120.054688 185.65625 119.734375 185.65625 119.511719 C 185.65625 118.539062 185.988281 117.4375 186.636719 116.207031 C 186.921875 115.722656 187.242188 115.230469 187.59375 114.726562 C 187.949219 114.230469 188.351562 113.710938 188.804688 113.164062 Z M 166.003906 104.792969 C 165.722656 104.792969 165.503906 104.894531 165.347656 105.097656 C 165.191406 105.296875 165.113281 105.492188 165.113281 105.695312 C 165.113281 106.324219 165.464844 106.980469 166.175781 107.667969 L 168.046875 109.125 C 168.269531 108.554688 168.382812 108.152344 168.382812 107.925781 C 168.382812 107.152344 168.113281 106.4375 167.578125 105.777344 C 167.039062 105.125 166.511719 104.792969 166.003906 104.792969 Z M 168.128906 101.234375 C 168.871094 101.234375 169.53125 101.636719 170.128906 102.4375 C 170.722656 103.234375 171.019531 104.207031 171.019531 105.351562 C 171.019531 105.894531 170.941406 106.460938 170.785156 107.046875 C 170.628906 107.632812 170.269531 108.710938 169.703125 110.28125 C 170.15625 110.683594 170.625 111.070312 171.105469 111.441406 C 171.417969 111.753906 171.574219 112.199219 171.574219 112.769531 C 171.574219 113.253906 171.53125 113.753906 171.445312 114.269531 C 171.363281 114.78125 171.277344 115.300781 171.191406 115.816406 L 167.660156 113.667969 C 166.242188 115.238281 165.28125 116.285156 164.769531 116.800781 C 162.675781 118.855469 160.914062 119.882812 159.5 119.882812 L 156.394531 119.882812 C 157.898438 119.167969 159.65625 118.011719 161.667969 116.414062 C 163.480469 114.953125 164.859375 113.667969 165.789062 112.550781 C 164.914062 112.011719 164.25 111.441406 163.792969 110.839844 C 163.222656 110.097656 162.941406 109.28125 162.941406 108.394531 C 162.941406 106.511719 163.488281 104.84375 164.578125 103.402344 C 165.671875 101.960938 166.855469 101.234375 168.128906 101.234375 Z M 193.355469 97.472656 C 193.464844 98.015625 193.574219 98.625 193.671875 99.296875 C 193.773438 99.96875 193.824219 100.558594 193.824219 101.074219 C 193.824219 103.21875 193.453125 104.976562 192.714844 106.347656 C 191.894531 107.890625 190.761719 108.664062 189.316406 108.664062 C 188.804688 108.664062 188.339844 108.574219 187.914062 108.40625 C 187.488281 108.234375 187.007812 107.964844 186.46875 107.589844 C 185.871094 108.621094 185.320312 109.390625 184.808594 109.90625 C 183.902344 110.820312 182.953125 111.277344 181.960938 111.277344 C 180.765625 111.277344 179.875 110.871094 179.28125 110.054688 C 178.6875 109.238281 178.390625 108.121094 178.390625 106.691406 C 178.390625 105.949219 178.488281 105.21875 178.6875 104.503906 C 178.882812 103.789062 179.167969 102.972656 179.535156 102.0625 L 180.429688 101.671875 C 180.429688 101.902344 180.402344 102.277344 180.34375 102.789062 C 180.289062 103.304688 180.261719 103.734375 180.261719 104.074219 C 180.261719 104.707031 180.386719 105.269531 180.644531 105.769531 C 180.894531 106.265625 181.28125 106.519531 181.789062 106.519531 C 183.007812 106.519531 183.988281 105.71875 184.722656 104.121094 C 185.0625 103.375 185.488281 101.929688 186 99.789062 L 186.894531 99.53125 C 187.117188 100.933594 187.304688 101.789062 187.445312 102.101562 C 187.785156 102.992188 188.351562 103.433594 189.144531 103.433594 C 190.222656 103.433594 191.074219 102.71875 191.695312 101.292969 C 192.207031 100.144531 192.460938 98.960938 192.460938 97.730469 Z M 215.546875 94.171875 C 216.003906 97.429688 216.578125 101.890625 217.273438 107.546875 C 217.96875 113.207031 218.511719 118.308594 218.910156 122.851562 C 219.417969 128.515625 219.671875 132.785156 219.671875 135.671875 C 219.671875 137.957031 219.261719 140.171875 218.4375 142.316406 C 218.015625 143.460938 217.09375 145.273438 215.675781 147.761719 L 214.910156 147.332031 C 215 146.503906 215.074219 145.542969 215.144531 144.460938 C 215.21875 143.375 215.25 142.644531 215.25 142.273438 C 215.25 139.300781 215.015625 135.148438 214.550781 129.816406 C 214.082031 124.492188 213.519531 118.925781 212.871094 113.121094 C 212.472656 109.605469 212.035156 106.019531 211.554688 102.359375 C 212.121094 101.101562 212.765625 99.746094 213.488281 98.285156 C 214.210938 96.832031 214.898438 95.457031 215.546875 94.171875 Z M 186.082031 85.554688 C 187.191406 88.929688 187.742188 91.113281 187.742188 92.113281 C 187.742188 93.65625 187.257812 95.503906 186.296875 97.644531 L 185.359375 97.472656 C 185.476562 96.414062 185.53125 95.648438 185.53125 95.15625 C 185.53125 93.214844 185.050781 91.253906 184.085938 89.28125 C 184.625 88.199219 185.292969 86.957031 186.082031 85.554688 Z M 186.082031 85.554688 " fill-opacity="1" fill-rule="evenodd"/></g><g fill="#11324d" fill-opacity="1"><g transform="translate(95.561633, 283.286715)"><g><path d="M 0.15625 -2.6875 C 0.832031 -2.6875 1.394531 -2.878906 1.84375 -3.265625 C 2.300781 -3.660156 2.660156 -4.132812 2.921875 -4.6875 C 3.179688 -5.25 3.507812 -6.066406 3.90625 -7.140625 L 11.5 -28 L 14.234375 -28 L 22.546875 -6.75 C 22.753906 -6.226562 22.972656 -5.582031 23.203125 -4.8125 C 23.441406 -4.050781 23.585938 -3.410156 23.640625 -2.890625 C 24.492188 -2.960938 25.242188 -3 25.890625 -3 L 25.890625 0 L 15.40625 0 L 15.40625 -2.578125 C 16.65625 -2.578125 17.28125 -3.097656 17.28125 -4.140625 C 17.28125 -4.648438 17.132812 -5.269531 16.84375 -6 L 16.0625 -8.15625 L 7.609375 -8 L 6.984375 -6.15625 C 6.898438 -5.945312 6.722656 -5.476562 6.453125 -4.75 C 6.179688 -4.03125 5.941406 -3.445312 5.734375 -3 C 6.566406 -3.082031 7.488281 -3.125 8.5 -3.125 L 8.5 0 L 0.15625 0 Z M 15.09375 -10.921875 L 13.296875 -15.796875 C 12.546875 -17.929688 12.050781 -19.710938 11.8125 -21.140625 L 11.78125 -21.140625 C 11.363281 -19.265625 10.878906 -17.546875 10.328125 -15.984375 L 8.578125 -10.921875 Z M 15.09375 -10.921875 "/></g></g></g><g fill="#11324d" fill-opacity="1"><g transform="translate(121.61366, 283.286715)"><g><path d="M 6.46875 0.625 C 4.832031 0.625 3.539062 0.140625 2.59375 -0.828125 C 1.644531 -1.804688 1.171875 -3.050781 1.171875 -4.5625 C 1.171875 -6.851562 2.234375 -8.585938 4.359375 -9.765625 C 6.492188 -10.953125 9.054688 -11.609375 12.046875 -11.734375 L 12.046875 -13.765625 C 12.046875 -16.128906 11.164062 -17.3125 9.40625 -17.3125 C 8.257812 -17.3125 7.320312 -16.945312 6.59375 -16.21875 C 6.90625 -15.851562 7.0625 -15.359375 7.0625 -14.734375 C 7.0625 -14.117188 6.84375 -13.5625 6.40625 -13.0625 C 5.976562 -12.570312 5.351562 -12.328125 4.53125 -12.328125 C 3.75 -12.328125 3.132812 -12.578125 2.6875 -13.078125 C 2.25 -13.585938 2.03125 -14.21875 2.03125 -14.96875 C 2.03125 -15.988281 2.394531 -16.890625 3.125 -17.671875 C 3.851562 -18.453125 4.847656 -19.054688 6.109375 -19.484375 C 7.367188 -19.910156 8.75 -20.125 10.25 -20.125 C 15.0625 -20.125 17.46875 -17.640625 17.46875 -12.671875 L 17.4375 -6.28125 C 17.4375 -5.03125 17.382812 -3.882812 17.28125 -2.84375 C 18.132812 -2.925781 18.976562 -2.96875 19.8125 -2.96875 L 19.8125 0 L 12.4375 0 C 12.382812 -0.332031 12.332031 -0.929688 12.28125 -1.796875 L 12.25 -1.796875 C 10.65625 -0.179688 8.726562 0.625 6.46875 0.625 Z M 8.9375 -3.203125 C 10.101562 -3.203125 11.128906 -3.671875 12.015625 -4.609375 L 12.015625 -8.96875 C 10.484375 -8.8125 9.210938 -8.421875 8.203125 -7.796875 C 7.203125 -7.171875 6.703125 -6.328125 6.703125 -5.265625 C 6.703125 -4.566406 6.914062 -4.046875 7.34375 -3.703125 C 7.78125 -3.367188 8.3125 -3.203125 8.9375 -3.203125 Z M 8.9375 -3.203125 "/></g></g></g><g fill="#11324d" fill-opacity="1"><g transform="translate(142.049682, 283.286715)"><g><path d="M 0.96875 -2.53125 C 1.675781 -2.53125 2.191406 -2.664062 2.515625 -2.9375 C 2.835938 -3.21875 3.046875 -3.59375 3.140625 -4.0625 C 3.234375 -4.53125 3.28125 -5.175781 3.28125 -6 L 3.28125 -22.03125 C 3.28125 -23.28125 3.332031 -24.410156 3.4375 -25.421875 L 0.703125 -25.3125 L 0.703125 -28.28125 C 2.335938 -28.28125 3.660156 -28.394531 4.671875 -28.625 C 5.691406 -28.863281 6.367188 -29.132812 6.703125 -29.4375 L 8.8125 -29.4375 L 8.8125 -6.28125 C 8.8125 -5.03125 8.757812 -3.882812 8.65625 -2.84375 C 9.507812 -2.925781 10.351562 -2.96875 11.1875 -2.96875 L 11.1875 0 L 0.96875 0 Z M 0.96875 -2.53125 "/></g></g></g><g fill="#11324d" fill-opacity="1"><g transform="translate(154.217692, 283.286715)"><g/></g></g><g fill="#11324d" fill-opacity="1"><g transform="translate(164.474699, 283.286715)"><g><path d="M 1.953125 -2.578125 C 2.648438 -2.597656 3.179688 -2.679688 3.546875 -2.828125 C 3.910156 -2.972656 4.195312 -3.28125 4.40625 -3.75 C 4.613281 -4.21875 4.71875 -4.957031 4.71875 -5.96875 L 4.71875 -20.90625 C 4.71875 -22.363281 4.769531 -23.53125 4.875 -24.40625 L 1.953125 -24.296875 L 1.953125 -27.296875 L 13.140625 -27.296875 L 13.140625 -24.71875 C 12.441406 -24.695312 11.910156 -24.613281 11.546875 -24.46875 C 11.179688 -24.332031 10.894531 -24.03125 10.6875 -23.5625 C 10.476562 -23.09375 10.375 -22.347656 10.375 -21.328125 L 10.375 -6.390625 C 10.375 -4.941406 10.320312 -3.773438 10.21875 -2.890625 C 11.050781 -2.960938 12.023438 -3 13.140625 -3 L 13.140625 0 L 1.953125 0 Z M 1.953125 -2.578125 "/></g></g></g><g fill="#11324d" fill-opacity="1"><g transform="translate(179.567715, 283.286715)"><g><path d="M 1.59375 -2.53125 C 2.582031 -2.53125 3.210938 -2.800781 3.484375 -3.34375 C 3.765625 -3.894531 3.90625 -4.78125 3.90625 -6 L 3.90625 -12.5625 C 3.90625 -13.726562 3.957031 -14.832031 4.0625 -15.875 L 1.328125 -15.75 L 1.328125 -18.71875 C 2.960938 -18.71875 4.285156 -18.832031 5.296875 -19.0625 C 6.316406 -19.300781 6.992188 -19.578125 7.328125 -19.890625 L 9.25 -19.890625 C 9.25 -19.835938 9.300781 -19.1875 9.40625 -17.9375 L 9.484375 -17.9375 C 10.285156 -18.59375 11.191406 -19.117188 12.203125 -19.515625 C 13.222656 -19.921875 14.210938 -20.125 15.171875 -20.125 C 16.335938 -20.125 17.316406 -19.910156 18.109375 -19.484375 C 18.910156 -19.054688 19.539062 -18.410156 20 -17.546875 C 20.9375 -18.328125 21.976562 -18.953125 23.125 -19.421875 C 24.269531 -19.890625 25.347656 -20.125 26.359375 -20.125 C 28.515625 -20.125 30.117188 -19.5 31.171875 -18.25 C 32.234375 -17 32.765625 -14.921875 32.765625 -12.015625 L 32.765625 -6.28125 C 32.765625 -5.03125 32.710938 -3.882812 32.609375 -2.84375 C 33.441406 -2.925781 34.285156 -2.96875 35.140625 -2.96875 L 35.140625 0 L 25.265625 0 L 25.265625 -2.53125 C 26.097656 -2.53125 26.628906 -2.8125 26.859375 -3.375 C 27.097656 -3.9375 27.21875 -4.8125 27.21875 -6 L 27.21875 -11.96875 C 27.195312 -13.613281 26.925781 -14.78125 26.40625 -15.46875 C 25.882812 -16.15625 25.128906 -16.5 24.140625 -16.5 C 22.992188 -16.5 21.875 -16.066406 20.78125 -15.203125 C 21.019531 -14.171875 21.140625 -12.9375 21.140625 -11.5 L 21.140625 -6.28125 C 21.140625 -5.03125 21.085938 -3.882812 20.984375 -2.84375 C 21.816406 -2.925781 22.660156 -2.96875 23.515625 -2.96875 L 23.515625 0 L 13.453125 0 L 13.453125 -2.53125 C 14.359375 -2.53125 14.941406 -2.800781 15.203125 -3.34375 C 15.460938 -3.894531 15.59375 -4.78125 15.59375 -6 L 15.5625 -12.09375 C 15.5625 -13.707031 15.328125 -14.84375 14.859375 -15.5 C 14.390625 -16.164062 13.6875 -16.507812 12.75 -16.53125 C 11.601562 -16.53125 10.5 -16.050781 9.4375 -15.09375 L 9.4375 -6.28125 C 9.4375 -5.03125 9.382812 -3.882812 9.28125 -2.84375 C 10.113281 -2.925781 10.894531 -2.96875 11.625 -2.96875 L 11.625 0 L 1.59375 0 Z M 1.59375 -2.53125 "/></g></g></g><g fill="#11324d" fill-opacity="1"><g transform="translate(215.447744, 283.286715)"><g><path d="M 1.59375 -2.53125 C 2.582031 -2.53125 3.210938 -2.800781 3.484375 -3.34375 C 3.765625 -3.894531 3.90625 -4.78125 3.90625 -6 L 3.90625 -12.5625 C 3.90625 -13.726562 3.957031 -14.832031 4.0625 -15.875 L 1.328125 -15.75 L 1.328125 -18.71875 C 2.960938 -18.71875 4.285156 -18.832031 5.296875 -19.0625 C 6.316406 -19.300781 6.992188 -19.578125 7.328125 -19.890625 L 9.25 -19.890625 C 9.300781 -19.503906 9.335938 -19 9.359375 -18.375 C 9.390625 -17.75 9.40625 -17.132812 9.40625 -16.53125 L 9.484375 -16.53125 C 11.242188 -18.925781 13.113281 -20.125 15.09375 -20.125 C 16.082031 -20.125 16.894531 -19.847656 17.53125 -19.296875 C 18.164062 -18.753906 18.484375 -17.953125 18.484375 -16.890625 C 18.484375 -16.210938 18.257812 -15.585938 17.8125 -15.015625 C 17.375 -14.441406 16.710938 -14.15625 15.828125 -14.15625 C 15.179688 -14.15625 14.601562 -14.320312 14.09375 -14.65625 C 13.59375 -15 13.300781 -15.585938 13.21875 -16.421875 C 12.488281 -16.421875 11.738281 -16 10.96875 -15.15625 C 10.207031 -14.3125 9.695312 -13.472656 9.4375 -12.640625 L 9.4375 -6.28125 C 9.4375 -5.03125 9.382812 -3.882812 9.28125 -2.84375 C 10.113281 -2.925781 10.957031 -2.96875 11.8125 -2.96875 L 11.8125 0 L 1.59375 0 Z M 1.59375 -2.53125 "/></g></g></g><g fill="#11324d" fill-opacity="1"><g transform="translate(234.16776, 283.286715)"><g><path d="M 6.46875 0.625 C 4.832031 0.625 3.539062 0.140625 2.59375 -0.828125 C 1.644531 -1.804688 1.171875 -3.050781 1.171875 -4.5625 C 1.171875 -6.851562 2.234375 -8.585938 4.359375 -9.765625 C 6.492188 -10.953125 9.054688 -11.609375 12.046875 -11.734375 L 12.046875 -13.765625 C 12.046875 -16.128906 11.164062 -17.3125 9.40625 -17.3125 C 8.257812 -17.3125 7.320312 -16.945312 6.59375 -16.21875 C 6.90625 -15.851562 7.0625 -15.359375 7.0625 -14.734375 C 7.0625 -14.117188 6.84375 -13.5625 6.40625 -13.0625 C 5.976562 -12.570312 5.351562 -12.328125 4.53125 -12.328125 C 3.75 -12.328125 3.132812 -12.578125 2.6875 -13.078125 C 2.25 -13.585938 2.03125 -14.21875 2.03125 -14.96875 C 2.03125 -15.988281 2.394531 -16.890625 3.125 -17.671875 C 3.851562 -18.453125 4.847656 -19.054688 6.109375 -19.484375 C 7.367188 -19.910156 8.75 -20.125 10.25 -20.125 C 15.0625 -20.125 17.46875 -17.640625 17.46875 -12.671875 L 17.4375 -6.28125 C 17.4375 -5.03125 17.382812 -3.882812 17.28125 -2.84375 C 18.132812 -2.925781 18.976562 -2.96875 19.8125 -2.96875 L 19.8125 0 L 12.4375 0 C 12.382812 -0.332031 12.332031 -0.929688 12.28125 -1.796875 L 12.25 -1.796875 C 10.65625 -0.179688 8.726562 0.625 6.46875 0.625 Z M 8.9375 -3.203125 C 10.101562 -3.203125 11.128906 -3.671875 12.015625 -4.609375 L 12.015625 -8.96875 C 10.484375 -8.8125 9.210938 -8.421875 8.203125 -7.796875 C 7.203125 -7.171875 6.703125 -6.328125 6.703125 -5.265625 C 6.703125 -4.566406 6.914062 -4.046875 7.34375 -3.703125 C 7.78125 -3.367188 8.3125 -3.203125 8.9375 -3.203125 Z M 8.9375 -3.203125 "/></g></g></g><g fill="#11324d" fill-opacity="1"><g transform="translate(254.603782, 283.286715)"><g><path d="M 1.59375 -2.53125 C 2.582031 -2.53125 3.210938 -2.800781 3.484375 -3.34375 C 3.765625 -3.894531 3.90625 -4.78125 3.90625 -6 L 3.90625 -12.5625 C 3.90625 -13.726562 3.957031 -14.832031 4.0625 -15.875 L 1.328125 -15.75 L 1.328125 -18.71875 C 2.960938 -18.71875 4.285156 -18.832031 5.296875 -19.0625 C 6.316406 -19.300781 6.992188 -19.578125 7.328125 -19.890625 L 9.25 -19.890625 C 9.25 -19.835938 9.300781 -19.1875 9.40625 -17.9375 L 9.484375 -17.9375 C 10.234375 -18.539062 11.160156 -19.054688 12.265625 -19.484375 C 13.367188 -19.910156 14.3125 -20.125 15.09375 -20.125 C 17.457031 -20.125 19.144531 -19.445312 20.15625 -18.09375 C 21.175781 -16.738281 21.6875 -14.539062 21.6875 -11.5 L 21.6875 -6.28125 C 21.6875 -5.03125 21.632812 -3.882812 21.53125 -2.84375 C 22.382812 -2.925781 23.226562 -2.96875 24.0625 -2.96875 L 24.0625 0 L 13.84375 0 L 13.84375 -2.53125 C 14.832031 -2.53125 15.46875 -2.800781 15.75 -3.34375 C 16.039062 -3.894531 16.1875 -4.78125 16.1875 -6 L 16.140625 -11.546875 C 16.140625 -13.265625 15.898438 -14.523438 15.421875 -15.328125 C 14.941406 -16.128906 14.128906 -16.53125 12.984375 -16.53125 C 12.359375 -16.53125 11.71875 -16.394531 11.0625 -16.125 C 10.414062 -15.851562 9.875 -15.507812 9.4375 -15.09375 L 9.4375 -6.28125 C 9.4375 -5.03125 9.382812 -3.882812 9.28125 -2.84375 C 10.113281 -2.925781 10.957031 -2.96875 11.8125 -2.96875 L 11.8125 0 L 1.59375 0 Z M 1.59375 -2.53125 "/></g></g></g><g fill="#11324d" fill-opacity="1"><g transform="translate(122.331368, 308.47659)"><g><path d="M 12.765625 3.703125 C 12.203125 3.703125 11.773438 3.679688 11.484375 3.640625 C 11.191406 3.609375 10.925781 3.53125 10.6875 3.40625 C 10.457031 3.28125 10.175781 3.070312 9.84375 2.78125 C 9.570312 2.550781 9.210938 2.203125 8.765625 1.734375 C 8.273438 1.210938 7.863281 0.835938 7.53125 0.609375 C 7.195312 0.378906 6.804688 0.265625 6.359375 0.265625 C 5.046875 0.265625 3.957031 -0.0351562 3.09375 -0.640625 C 2.226562 -1.242188 1.597656 -2.015625 1.203125 -2.953125 C 0.804688 -3.898438 0.609375 -4.898438 0.609375 -5.953125 C 0.609375 -6.960938 0.832031 -7.941406 1.28125 -8.890625 C 1.738281 -9.835938 2.414062 -10.617188 3.3125 -11.234375 C 4.21875 -11.859375 5.304688 -12.171875 6.578125 -12.171875 C 7.878906 -12.171875 8.972656 -11.859375 9.859375 -11.234375 C 10.742188 -10.617188 11.398438 -9.835938 11.828125 -8.890625 C 12.265625 -7.941406 12.484375 -6.960938 12.484375 -5.953125 C 12.484375 -5.171875 12.335938 -4.390625 12.046875 -3.609375 C 11.753906 -2.835938 11.316406 -2.132812 10.734375 -1.5 C 10.160156 -0.875 9.46875 -0.410156 8.65625 -0.109375 L 8.65625 -0.078125 C 9.1875 -0.078125 9.617188 -0.0195312 9.953125 0.09375 C 10.296875 0.207031 10.675781 0.460938 11.09375 0.859375 L 11.859375 1.59375 C 12.316406 2.03125 12.632812 2.300781 12.8125 2.40625 C 12.988281 2.507812 13.21875 2.5625 13.5 2.5625 L 13.5 3.703125 Z M 6.6875 -0.96875 C 7.414062 -0.96875 8.015625 -1.195312 8.484375 -1.65625 C 8.953125 -2.125 9.289062 -2.710938 9.5 -3.421875 C 9.707031 -4.140625 9.8125 -4.882812 9.8125 -5.65625 C 9.8125 -7.269531 9.523438 -8.550781 8.953125 -9.5 C 8.390625 -10.457031 7.550781 -10.9375 6.4375 -10.9375 C 5.675781 -10.9375 5.0625 -10.695312 4.59375 -10.21875 C 4.125 -9.738281 3.785156 -9.132812 3.578125 -8.40625 C 3.378906 -7.6875 3.28125 -6.9375 3.28125 -6.15625 C 3.28125 -5.363281 3.394531 -4.566406 3.625 -3.765625 C 3.851562 -2.972656 4.21875 -2.304688 4.71875 -1.765625 C 5.226562 -1.234375 5.882812 -0.96875 6.6875 -0.96875 Z M 6.6875 -0.96875 "/></g></g></g><g fill="#11324d" fill-opacity="1"><g transform="translate(136.843331, 308.47659)"><g><path d="M 4.21875 0.265625 C 3.207031 0.265625 2.484375 -0.0234375 2.046875 -0.609375 C 1.609375 -1.203125 1.390625 -2.160156 1.390625 -3.484375 L 1.390625 -5.4375 C 1.390625 -5.914062 1.40625 -6.410156 1.4375 -6.921875 L 0.25 -6.875 L 0.25 -8.15625 C 0.96875 -8.15625 1.546875 -8.207031 1.984375 -8.3125 C 2.429688 -8.414062 2.726562 -8.535156 2.875 -8.671875 L 3.8125 -8.671875 L 3.8125 -3.46875 C 3.8125 -2.71875 3.90625 -2.164062 4.09375 -1.8125 C 4.289062 -1.46875 4.597656 -1.296875 5.015625 -1.296875 C 5.296875 -1.296875 5.585938 -1.375 5.890625 -1.53125 C 6.191406 -1.6875 6.441406 -1.878906 6.640625 -2.109375 L 6.640625 -5.4375 C 6.640625 -5.96875 6.664062 -6.460938 6.71875 -6.921875 L 5.53125 -6.875 L 5.53125 -8.15625 C 6.238281 -8.15625 6.8125 -8.207031 7.25 -8.3125 C 7.6875 -8.414062 7.976562 -8.535156 8.125 -8.671875 L 9.0625 -8.671875 L 9.0625 -2.734375 C 9.0625 -2.191406 9.039062 -1.691406 9 -1.234375 C 9.351562 -1.273438 9.71875 -1.296875 10.09375 -1.296875 L 10.09375 0 L 6.875 0 L 6.765625 -0.890625 L 6.75 -0.890625 C 6.332031 -0.523438 5.925781 -0.238281 5.53125 -0.03125 C 5.144531 0.164062 4.707031 0.265625 4.21875 0.265625 Z M 4.21875 0.265625 "/></g></g></g><g fill="#11324d" fill-opacity="1"><g transform="translate(148.772476, 308.47659)"><g><path d="M 0.703125 -1.109375 C 1.128906 -1.109375 1.398438 -1.222656 1.515625 -1.453125 C 1.640625 -1.691406 1.703125 -2.082031 1.703125 -2.625 L 1.703125 -5.46875 C 1.703125 -5.976562 1.722656 -6.460938 1.765625 -6.921875 L 0.578125 -6.875 L 0.578125 -8.15625 C 1.296875 -8.15625 1.875 -8.207031 2.3125 -8.3125 C 2.75 -8.414062 3.046875 -8.535156 3.203125 -8.671875 L 4.03125 -8.671875 C 4.050781 -8.503906 4.066406 -8.28125 4.078125 -8 C 4.085938 -7.726562 4.09375 -7.460938 4.09375 -7.203125 L 4.125 -7.203125 C 4.894531 -8.242188 5.710938 -8.765625 6.578125 -8.765625 C 7.003906 -8.765625 7.359375 -8.644531 7.640625 -8.40625 C 7.921875 -8.175781 8.0625 -7.828125 8.0625 -7.359375 C 8.0625 -7.066406 7.960938 -6.796875 7.765625 -6.546875 C 7.578125 -6.296875 7.289062 -6.171875 6.90625 -6.171875 C 6.625 -6.171875 6.367188 -6.242188 6.140625 -6.390625 C 5.921875 -6.535156 5.796875 -6.789062 5.765625 -7.15625 C 5.441406 -7.15625 5.113281 -6.96875 4.78125 -6.59375 C 4.445312 -6.226562 4.222656 -5.867188 4.109375 -5.515625 L 4.109375 -2.734375 C 4.109375 -2.191406 4.085938 -1.691406 4.046875 -1.234375 C 4.410156 -1.273438 4.78125 -1.296875 5.15625 -1.296875 L 5.15625 0 L 0.703125 0 Z M 0.703125 -1.109375 "/></g></g></g><g fill="#11324d" fill-opacity="1"><g transform="translate(158.356717, 308.47659)"><g><path d="M 0.71875 -12.171875 L 2.484375 -12.171875 L 2.328125 -8.34375 L 0.890625 -8.34375 Z M 0.71875 -12.171875 "/></g></g></g><g fill="#11324d" fill-opacity="1"><g transform="translate(162.979245, 308.47659)"><g><path d="M 2.828125 0.265625 C 2.109375 0.265625 1.539062 0.0546875 1.125 -0.359375 C 0.71875 -0.785156 0.515625 -1.328125 0.515625 -1.984375 C 0.515625 -2.984375 0.976562 -3.738281 1.90625 -4.25 C 2.832031 -4.769531 3.945312 -5.054688 5.25 -5.109375 L 5.25 -6 C 5.25 -7.03125 4.863281 -7.546875 4.09375 -7.546875 C 3.59375 -7.546875 3.1875 -7.390625 2.875 -7.078125 C 3.007812 -6.910156 3.078125 -6.691406 3.078125 -6.421875 C 3.078125 -6.148438 2.984375 -5.90625 2.796875 -5.6875 C 2.609375 -5.476562 2.332031 -5.375 1.96875 -5.375 C 1.632812 -5.375 1.367188 -5.484375 1.171875 -5.703125 C 0.984375 -5.921875 0.890625 -6.195312 0.890625 -6.53125 C 0.890625 -6.96875 1.046875 -7.359375 1.359375 -7.703125 C 1.679688 -8.046875 2.113281 -8.304688 2.65625 -8.484375 C 3.207031 -8.671875 3.8125 -8.765625 4.46875 -8.765625 C 6.5625 -8.765625 7.609375 -7.6875 7.609375 -5.53125 L 7.59375 -2.734375 C 7.59375 -2.191406 7.570312 -1.691406 7.53125 -1.234375 C 7.90625 -1.273438 8.273438 -1.296875 8.640625 -1.296875 L 8.640625 0 L 5.421875 0 C 5.398438 -0.144531 5.378906 -0.40625 5.359375 -0.78125 L 5.34375 -0.78125 C 4.644531 -0.0820312 3.804688 0.265625 2.828125 0.265625 Z M 3.890625 -1.390625 C 4.398438 -1.390625 4.847656 -1.59375 5.234375 -2 L 5.234375 -3.90625 C 4.566406 -3.84375 4.015625 -3.671875 3.578125 -3.390625 C 3.140625 -3.117188 2.921875 -2.753906 2.921875 -2.296875 C 2.921875 -1.992188 3.015625 -1.765625 3.203125 -1.609375 C 3.390625 -1.460938 3.617188 -1.390625 3.890625 -1.390625 Z M 3.890625 -1.390625 "/></g></g></g><g fill="#11324d" fill-opacity="1"><g transform="translate(173.311142, 308.47659)"><g><path d="M 0.703125 -1.109375 C 1.128906 -1.109375 1.398438 -1.222656 1.515625 -1.453125 C 1.640625 -1.691406 1.703125 -2.082031 1.703125 -2.625 L 1.703125 -5.46875 C 1.703125 -5.976562 1.722656 -6.460938 1.765625 -6.921875 L 0.578125 -6.875 L 0.578125 -8.15625 C 1.296875 -8.15625 1.875 -8.207031 2.3125 -8.3125 C 2.75 -8.414062 3.046875 -8.535156 3.203125 -8.671875 L 4.03125 -8.671875 C 4.03125 -8.648438 4.050781 -8.363281 4.09375 -7.8125 L 4.125 -7.8125 C 4.457031 -8.082031 4.863281 -8.304688 5.34375 -8.484375 C 5.820312 -8.671875 6.234375 -8.765625 6.578125 -8.765625 C 7.609375 -8.765625 8.34375 -8.46875 8.78125 -7.875 C 9.226562 -7.289062 9.453125 -6.335938 9.453125 -5.015625 L 9.453125 -2.734375 C 9.453125 -2.191406 9.429688 -1.691406 9.390625 -1.234375 C 9.753906 -1.273438 10.117188 -1.296875 10.484375 -1.296875 L 10.484375 0 L 6.03125 0 L 6.03125 -1.109375 C 6.46875 -1.109375 6.75 -1.222656 6.875 -1.453125 C 7 -1.691406 7.0625 -2.082031 7.0625 -2.625 L 7.03125 -5.03125 C 7.03125 -5.78125 6.925781 -6.328125 6.71875 -6.671875 C 6.507812 -7.023438 6.15625 -7.203125 5.65625 -7.203125 C 5.382812 -7.203125 5.109375 -7.140625 4.828125 -7.015625 C 4.546875 -6.898438 4.304688 -6.753906 4.109375 -6.578125 L 4.109375 -2.734375 C 4.109375 -2.191406 4.085938 -1.691406 4.046875 -1.234375 C 4.410156 -1.273438 4.78125 -1.296875 5.15625 -1.296875 L 5.15625 0 L 0.703125 0 Z M 0.703125 -1.109375 "/></g></g></g><g fill="#11324d" fill-opacity="1"><g transform="translate(185.546158, 308.47659)"><g/></g></g><g fill="#11324d" fill-opacity="1"><g transform="translate(191.443097, 308.47659)"><g><path d="M 5.21875 0.265625 C 4.75 0.265625 4.25 0.191406 3.71875 0.046875 C 3.195312 -0.0976562 2.71875 -0.300781 2.28125 -0.5625 L 2.265625 -0.5625 L 2.3125 0.15625 L 1 0.15625 L 1 -3.828125 L 2.125 -3.828125 C 2.269531 -2.898438 2.625 -2.1875 3.1875 -1.6875 C 3.757812 -1.195312 4.453125 -0.953125 5.265625 -0.953125 C 5.859375 -0.953125 6.347656 -1.109375 6.734375 -1.421875 C 7.117188 -1.734375 7.3125 -2.109375 7.3125 -2.546875 C 7.3125 -2.910156 7.179688 -3.222656 6.921875 -3.484375 C 6.671875 -3.742188 6.390625 -3.945312 6.078125 -4.09375 C 5.765625 -4.238281 5.269531 -4.445312 4.59375 -4.71875 C 3.34375 -5.21875 2.382812 -5.785156 1.71875 -6.421875 C 1.0625 -7.054688 0.734375 -7.890625 0.734375 -8.921875 C 0.734375 -9.441406 0.863281 -9.945312 1.125 -10.4375 C 1.382812 -10.9375 1.8125 -11.347656 2.40625 -11.671875 C 3 -12.003906 3.765625 -12.171875 4.703125 -12.171875 C 5.191406 -12.171875 5.703125 -12.097656 6.234375 -11.953125 C 6.765625 -11.816406 7.207031 -11.617188 7.5625 -11.359375 L 7.578125 -11.359375 L 7.515625 -12.046875 L 8.84375 -12.046875 L 8.84375 -8.09375 L 7.71875 -8.09375 C 7.570312 -9.019531 7.242188 -9.726562 6.734375 -10.21875 C 6.234375 -10.707031 5.59375 -10.953125 4.8125 -10.953125 C 4.300781 -10.953125 3.859375 -10.8125 3.484375 -10.53125 C 3.117188 -10.25 2.9375 -9.898438 2.9375 -9.484375 C 2.9375 -8.984375 3.144531 -8.5625 3.5625 -8.21875 C 3.988281 -7.882812 4.695312 -7.515625 5.6875 -7.109375 C 6.832031 -6.648438 7.765625 -6.125 8.484375 -5.53125 C 9.210938 -4.9375 9.578125 -4.144531 9.578125 -3.15625 C 9.578125 -2.488281 9.394531 -1.894531 9.03125 -1.375 C 8.664062 -0.851562 8.15625 -0.445312 7.5 -0.15625 C 6.84375 0.125 6.082031 0.265625 5.21875 0.265625 Z M 5.21875 0.265625 "/></g></g></g><g fill="#11324d" fill-opacity="1"><g transform="translate(203.032408, 308.47659)"><g><path d="M 4.703125 0.265625 C 3.929688 0.265625 3.226562 0.09375 2.59375 -0.25 C 1.96875 -0.59375 1.46875 -1.085938 1.09375 -1.734375 C 0.71875 -2.390625 0.53125 -3.164062 0.53125 -4.0625 C 0.53125 -4.914062 0.71875 -5.703125 1.09375 -6.421875 C 1.46875 -7.140625 1.988281 -7.707031 2.65625 -8.125 C 3.332031 -8.550781 4.097656 -8.765625 4.953125 -8.765625 C 5.640625 -8.765625 6.226562 -8.65625 6.71875 -8.4375 C 7.21875 -8.226562 7.59375 -7.945312 7.84375 -7.59375 C 8.09375 -7.238281 8.21875 -6.851562 8.21875 -6.4375 C 8.21875 -6.09375 8.109375 -5.796875 7.890625 -5.546875 C 7.679688 -5.296875 7.394531 -5.171875 7.03125 -5.171875 C 6.664062 -5.171875 6.390625 -5.28125 6.203125 -5.5 C 6.015625 -5.726562 5.921875 -5.984375 5.921875 -6.265625 C 5.921875 -6.523438 5.988281 -6.773438 6.125 -7.015625 C 6.019531 -7.222656 5.851562 -7.367188 5.625 -7.453125 C 5.394531 -7.535156 5.171875 -7.578125 4.953125 -7.578125 C 4.367188 -7.578125 3.898438 -7.3125 3.546875 -6.78125 C 3.191406 -6.257812 3.015625 -5.519531 3.015625 -4.5625 C 3.015625 -3.59375 3.195312 -2.796875 3.5625 -2.171875 C 3.9375 -1.546875 4.53125 -1.234375 5.34375 -1.234375 C 5.789062 -1.234375 6.234375 -1.351562 6.671875 -1.59375 C 7.117188 -1.832031 7.492188 -2.148438 7.796875 -2.546875 L 8.578125 -1.78125 C 8.015625 -1 7.410156 -0.460938 6.765625 -0.171875 C 6.117188 0.117188 5.429688 0.265625 4.703125 0.265625 Z M 4.703125 0.265625 "/></g></g></g><g fill="#11324d" fill-opacity="1"><g transform="translate(213.26235, 308.47659)"><g><path d="M 0.421875 -1.109375 C 0.734375 -1.109375 0.957031 -1.164062 1.09375 -1.28125 C 1.238281 -1.40625 1.328125 -1.566406 1.359375 -1.765625 C 1.398438 -1.972656 1.421875 -2.257812 1.421875 -2.625 L 1.421875 -9.609375 C 1.421875 -10.148438 1.445312 -10.640625 1.5 -11.078125 L 0.3125 -11.03125 L 0.3125 -12.328125 C 1.019531 -12.328125 1.59375 -12.375 2.03125 -12.46875 C 2.476562 -12.570312 2.773438 -12.691406 2.921875 -12.828125 L 3.84375 -12.828125 L 3.84375 -7.8125 C 4.164062 -8.082031 4.570312 -8.304688 5.0625 -8.484375 C 5.550781 -8.671875 5.972656 -8.765625 6.328125 -8.765625 C 7.347656 -8.765625 8.078125 -8.46875 8.515625 -7.875 C 8.960938 -7.289062 9.191406 -6.335938 9.203125 -5.015625 L 9.203125 -2.734375 C 9.203125 -2.191406 9.175781 -1.691406 9.125 -1.234375 C 9.488281 -1.273438 9.859375 -1.296875 10.234375 -1.296875 L 10.234375 0 L 5.765625 0 L 5.765625 -1.109375 C 6.191406 -1.109375 6.46875 -1.222656 6.59375 -1.453125 C 6.71875 -1.691406 6.78125 -2.082031 6.78125 -2.625 L 6.765625 -5.03125 C 6.765625 -5.78125 6.65625 -6.328125 6.4375 -6.671875 C 6.21875 -7.023438 5.867188 -7.203125 5.390625 -7.203125 C 5.117188 -7.203125 4.835938 -7.140625 4.546875 -7.015625 C 4.265625 -6.898438 4.03125 -6.753906 3.84375 -6.578125 L 3.84375 -2.734375 C 3.84375 -2.191406 3.820312 -1.691406 3.78125 -1.234375 C 4.144531 -1.273438 4.507812 -1.296875 4.875 -1.296875 L 4.875 0 L 0.421875 0 Z M 0.421875 -1.109375 "/></g></g></g><g fill="#11324d" fill-opacity="1"><g transform="translate(225.242482, 308.47659)"><g><path d="M 4.859375 0.265625 C 4.035156 0.265625 3.296875 0.09375 2.640625 -0.25 C 1.984375 -0.601562 1.46875 -1.109375 1.09375 -1.765625 C 0.71875 -2.421875 0.53125 -3.1875 0.53125 -4.0625 C 0.53125 -4.976562 0.722656 -5.789062 1.109375 -6.5 C 1.492188 -7.21875 2.007812 -7.773438 2.65625 -8.171875 C 3.3125 -8.566406 4.03125 -8.765625 4.8125 -8.765625 C 5.625 -8.765625 6.351562 -8.585938 7 -8.234375 C 7.644531 -7.890625 8.15625 -7.382812 8.53125 -6.71875 C 8.90625 -6.0625 9.09375 -5.289062 9.09375 -4.40625 C 9.09375 -3.457031 8.914062 -2.632812 8.5625 -1.9375 C 8.207031 -1.238281 7.707031 -0.695312 7.0625 -0.3125 C 6.425781 0.0703125 5.691406 0.265625 4.859375 0.265625 Z M 4.890625 -0.9375 C 5.515625 -0.9375 5.953125 -1.222656 6.203125 -1.796875 C 6.453125 -2.378906 6.578125 -3.109375 6.578125 -3.984375 C 6.578125 -4.953125 6.4375 -5.789062 6.15625 -6.5 C 5.875 -7.21875 5.425781 -7.578125 4.8125 -7.578125 C 4.1875 -7.578125 3.734375 -7.28125 3.453125 -6.6875 C 3.171875 -6.101562 3.03125 -5.378906 3.03125 -4.515625 C 3.03125 -3.535156 3.179688 -2.691406 3.484375 -1.984375 C 3.785156 -1.285156 4.253906 -0.9375 4.890625 -0.9375 Z M 4.890625 -0.9375 "/></g></g></g><g fill="#11324d" fill-opacity="1"><g transform="translate(236.288044, 308.47659)"><g><path d="M 4.859375 0.265625 C 4.035156 0.265625 3.296875 0.09375 2.640625 -0.25 C 1.984375 -0.601562 1.46875 -1.109375 1.09375 -1.765625 C 0.71875 -2.421875 0.53125 -3.1875 0.53125 -4.0625 C 0.53125 -4.976562 0.722656 -5.789062 1.109375 -6.5 C 1.492188 -7.21875 2.007812 -7.773438 2.65625 -8.171875 C 3.3125 -8.566406 4.03125 -8.765625 4.8125 -8.765625 C 5.625 -8.765625 6.351562 -8.585938 7 -8.234375 C 7.644531 -7.890625 8.15625 -7.382812 8.53125 -6.71875 C 8.90625 -6.0625 9.09375 -5.289062 9.09375 -4.40625 C 9.09375 -3.457031 8.914062 -2.632812 8.5625 -1.9375 C 8.207031 -1.238281 7.707031 -0.695312 7.0625 -0.3125 C 6.425781 0.0703125 5.691406 0.265625 4.859375 0.265625 Z M 4.890625 -0.9375 C 5.515625 -0.9375 5.953125 -1.222656 6.203125 -1.796875 C 6.453125 -2.378906 6.578125 -3.109375 6.578125 -3.984375 C 6.578125 -4.953125 6.4375 -5.789062 6.15625 -6.5 C 5.875 -7.21875 5.425781 -7.578125 4.8125 -7.578125 C 4.1875 -7.578125 3.734375 -7.28125 3.453125 -6.6875 C 3.171875 -6.101562 3.03125 -5.378906 3.03125 -4.515625 C 3.03125 -3.535156 3.179688 -2.691406 3.484375 -1.984375 C 3.785156 -1.285156 4.253906 -0.9375 4.890625 -0.9375 Z M 4.890625 -0.9375 "/></g></g></g><g fill="#11324d" fill-opacity="1"><g transform="translate(247.333606, 308.47659)"><g><path d="M 0.421875 -1.109375 C 0.734375 -1.109375 0.957031 -1.164062 1.09375 -1.28125 C 1.238281 -1.40625 1.328125 -1.566406 1.359375 -1.765625 C 1.398438 -1.972656 1.421875 -2.257812 1.421875 -2.625 L 1.421875 -9.609375 C 1.421875 -10.148438 1.445312 -10.640625 1.5 -11.078125 L 0.3125 -11.03125 L 0.3125 -12.328125 C 1.019531 -12.328125 1.59375 -12.375 2.03125 -12.46875 C 2.476562 -12.570312 2.773438 -12.691406 2.921875 -12.828125 L 3.84375 -12.828125 L 3.84375 -2.734375 C 3.84375 -2.191406 3.820312 -1.691406 3.78125 -1.234375 C 4.144531 -1.273438 4.507812 -1.296875 4.875 -1.296875 L 4.875 0 L 0.421875 0 Z M 0.421875 -1.109375 "/></g></g></g></svg>