<svg xmlns="http://www.w3.org/2000/svg" xmlns:xlink="http://www.w3.org/1999/xlink" width="500" zoomAndPan="magnify" viewBox="0 0 375 374.999991" height="500" preserveAspectRatio="xMidYMid meet" version="1.0"><defs><clipPath id="410777ea57"><path d="M 88.296875 88.296875 L 287.046875 88.296875 L 287.046875 287.046875 L 88.296875 287.046875 Z M 88.296875 88.296875 " clip-rule="nonzero"/></clipPath><clipPath id="8fe837bf28"><path d="M 120 195 L 254.976562 195 L 254.976562 225 L 120 225 Z M 120 195 " clip-rule="nonzero"/></clipPath><clipPath id="f8212cbc4a"><path d="M 129 210 L 181 210 L 181 245.25 L 129 245.25 Z M 129 210 " clip-rule="nonzero"/></clipPath><clipPath id="83faa50af2"><path d="M 194 210 L 246 210 L 246 245.25 L 194 245.25 Z M 194 210 " clip-rule="nonzero"/></clipPath><clipPath id="df4fe3a23e"><path d="M 155.171875 125.574219 L 219.671875 125.574219 L 219.671875 187.777344 L 155.171875 187.777344 Z M 155.171875 125.574219 " clip-rule="nonzero"/></clipPath></defs><g clip-path="url(#410777ea57)"><path fill="#11324d" d="M 187.671875 287.015625 L 186.4375 285.449219 C 183.601562 281.84375 179.820312 279.113281 175.507812 277.546875 L 171.6875 276.160156 C 163.597656 273.226562 158.007812 265.753906 157.394531 257.261719 L 118.117188 257.261719 L 118.117188 217.988281 C 109.597656 217.394531 102.09375 211.796875 99.15625 203.6875 L 97.773438 199.867188 C 96.207031 195.554688 93.476562 191.777344 89.871094 188.941406 L 88.296875 187.703125 L 89.863281 186.46875 C 93.464844 183.632812 96.199219 179.851562 97.765625 175.539062 L 99.148438 171.71875 C 102.085938 163.613281 109.589844 158.011719 118.109375 157.421875 L 118.109375 118.144531 L 157.382812 118.144531 C 157.976562 109.625 163.574219 102.121094 171.679688 99.179688 L 175.5 97.796875 C 179.816406 96.234375 183.59375 93.5 186.429688 89.894531 L 187.671875 88.328125 L 188.90625 89.894531 C 191.742188 93.496094 195.523438 96.230469 199.832031 97.796875 L 203.652344 99.179688 C 211.761719 102.121094 217.355469 109.621094 217.953125 118.144531 L 257.226562 118.144531 L 257.226562 157.417969 C 265.742188 158.011719 273.246094 163.609375 276.1875 171.714844 L 277.570312 175.535156 C 279.136719 179.851562 281.863281 183.628906 285.472656 186.464844 L 287.039062 187.699219 L 285.472656 188.933594 C 281.867188 191.769531 279.136719 195.550781 277.570312 199.859375 L 276.1875 203.679688 C 273.246094 211.789062 265.742188 217.390625 257.226562 217.980469 L 257.226562 257.253906 L 217.949219 257.253906 C 217.332031 265.746094 211.742188 273.21875 203.652344 276.152344 L 199.832031 277.539062 C 195.519531 279.105469 191.742188 281.832031 188.90625 285.441406 Z M 121.25 254.121094 L 160.472656 254.121094 L 160.472656 255.691406 C 160.472656 263.507812 165.410156 270.550781 172.757812 273.210938 L 176.578125 274.597656 C 180.839844 276.140625 184.640625 278.703125 187.671875 282.050781 C 190.699219 278.703125 194.5 276.140625 198.765625 274.597656 L 202.585938 273.210938 C 209.933594 270.546875 214.867188 263.507812 214.867188 255.691406 L 214.867188 254.121094 L 254.089844 254.121094 L 254.089844 214.902344 L 255.71875 214.902344 C 263.535156 214.902344 270.578125 209.964844 273.238281 202.617188 L 274.625 198.796875 C 276.171875 194.53125 278.730469 190.730469 282.078125 187.703125 C 278.730469 184.675781 276.171875 180.871094 274.625 176.609375 L 273.238281 172.789062 C 270.578125 165.441406 263.535156 160.503906 255.71875 160.503906 L 254.089844 160.503906 L 254.089844 121.277344 L 214.867188 121.277344 L 214.867188 119.652344 C 214.867188 111.835938 209.933594 104.792969 202.585938 102.128906 L 198.765625 100.746094 C 194.5 99.199219 190.699219 96.640625 187.671875 93.292969 C 184.640625 96.640625 180.839844 99.199219 176.578125 100.746094 L 172.757812 102.128906 C 165.410156 104.796875 160.472656 111.835938 160.472656 119.652344 L 160.472656 121.277344 L 121.25 121.277344 L 121.25 160.5 L 119.621094 160.5 C 111.808594 160.5 104.765625 165.4375 102.101562 172.785156 L 100.71875 176.605469 C 99.171875 180.867188 96.613281 184.671875 93.265625 187.699219 C 96.613281 190.726562 99.171875 194.527344 100.71875 198.792969 L 102.097656 202.617188 C 104.761719 209.964844 111.804688 214.902344 119.617188 214.902344 L 121.246094 214.902344 L 121.246094 254.121094 Z M 121.25 254.121094 " fill-opacity="1" fill-rule="nonzero"/></g><g clip-path="url(#8fe837bf28)"><path fill="#11324d" d="M 187.476562 224.835938 L 187.480469 224.835938 L 236.78125 206.523438 C 242.113281 204.542969 240.722656 205.0625 254.957031 199.773438 L 253.140625 195.328125 L 187.476562 219.585938 L 121.816406 195.328125 L 120 199.773438 C 134.234375 205.0625 132.84375 204.542969 138.175781 206.523438 Z M 187.476562 224.835938 " fill-opacity="1" fill-rule="evenodd"/></g><path fill="#f8c91f" d="M 187.476562 215.847656 L 125.65625 193.003906 L 126.9375 189.488281 C 158.585938 200.335938 185.386719 187.496094 187.476562 215.847656 Z M 187.476562 215.847656 " fill-opacity="1" fill-rule="evenodd"/><path fill="#f8c91f" d="M 187.476562 215.847656 L 249.300781 193.003906 L 248.019531 189.488281 C 216.367188 200.335938 189.570312 187.496094 187.476562 215.847656 Z M 187.476562 215.847656 " fill-opacity="1" fill-rule="evenodd"/><g clip-path="url(#f8212cbc4a)"><path fill="#11324d" d="M 129.175781 245.242188 L 180.863281 226.046875 L 140.203125 210.945312 L 138.6875 215.132812 C 155.902344 219.417969 146.902344 229.707031 133.851562 231.28125 Z M 129.175781 245.242188 " fill-opacity="1" fill-rule="evenodd"/></g><g clip-path="url(#83faa50af2)"><path fill="#11324d" d="M 245.78125 245.242188 L 194.09375 226.046875 L 234.753906 210.945312 L 236.269531 215.132812 C 219.050781 219.417969 228.054688 229.707031 241.101562 231.28125 Z M 245.78125 245.242188 " fill-opacity="1" fill-rule="evenodd"/></g><g clip-path="url(#df4fe3a23e)"><path fill="#feb601" d="M 172.566406 172.988281 C 171.289062 173.441406 170.078125 173.902344 168.929688 174.359375 C 167.78125 174.816406 166.867188 175.246094 166.183594 175.644531 C 165.589844 176.019531 165.058594 176.566406 164.59375 177.296875 C 164.125 178.023438 163.648438 178.789062 163.164062 179.589844 C 163.792969 179.847656 164.492188 180.046875 165.269531 180.1875 C 166.050781 180.332031 167.148438 180.40625 168.566406 180.40625 C 169.359375 180.40625 170.183594 180.171875 171.03125 179.695312 C 171.882812 179.226562 172.660156 178.578125 173.371094 177.746094 Z M 188.804688 153.183594 L 189.65625 157.9375 L 192.289062 171.144531 C 192.519531 172.375 192.851562 173.429688 193.292969 174.320312 C 193.730469 175.203125 194.222656 175.972656 194.757812 176.632812 C 195.039062 176.972656 195.425781 177.304688 195.90625 177.617188 C 196.390625 177.929688 196.921875 178.21875 197.5 178.476562 C 198.082031 178.734375 198.691406 178.945312 199.324219 179.121094 C 199.964844 179.289062 200.570312 179.375 201.136719 179.375 C 201.53125 179.375 201.84375 179.289062 202.070312 179.121094 C 202.300781 178.945312 202.441406 178.476562 202.496094 177.707031 L 199.136719 161.929688 C 199.078125 161.355469 199.027344 160.867188 198.988281 160.46875 C 198.945312 160.070312 198.921875 159.753906 198.921875 159.527344 C 198.921875 158.582031 199.25 157.480469 199.902344 156.222656 C 200.1875 155.679688 200.507812 155.160156 200.859375 154.660156 C 201.214844 154.160156 201.589844 153.667969 201.984375 153.183594 C 202.042969 153.550781 202.191406 154.300781 202.433594 155.429688 C 202.675781 156.558594 203.003906 158.097656 203.429688 160.039062 C 203.6875 161.214844 203.90625 162.214844 204.09375 163.042969 C 204.277344 163.867188 204.445312 164.613281 204.601562 165.269531 C 204.757812 165.929688 204.894531 166.527344 205.003906 167.070312 C 205.117188 167.613281 205.230469 168.1875 205.347656 168.785156 C 205.542969 169.816406 205.707031 170.6875 205.835938 171.402344 C 205.960938 172.117188 206.058594 172.738281 206.132812 173.269531 C 206.203125 173.792969 206.25 174.257812 206.28125 174.660156 C 206.308594 175.0625 206.320312 175.429688 206.320312 175.773438 C 206.320312 176.863281 206.195312 177.828125 205.941406 178.691406 C 205.828125 179.085938 205.683594 179.554688 205.515625 180.082031 C 205.347656 180.613281 205.160156 181.148438 204.960938 181.691406 C 204.765625 182.234375 204.574219 182.753906 204.390625 183.253906 C 204.203125 183.753906 204.042969 184.175781 203.902344 184.519531 L 203.21875 186.105469 C 201.859375 186.050781 200.585938 185.910156 199.390625 185.699219 C 198.199219 185.484375 197.039062 185.179688 195.90625 184.777344 C 195 184.460938 194.25 184.027344 193.652344 183.46875 C 193.058594 182.914062 192.503906 182.222656 191.992188 181.390625 C 191.371094 182.304688 190.730469 183.082031 190.082031 183.726562 C 189.425781 184.367188 188.703125 184.933594 187.914062 185.417969 C 187.574219 185.621094 187.175781 185.820312 186.722656 186.023438 C 186.265625 186.222656 185.785156 186.40625 185.277344 186.574219 C 184.765625 186.75 184.257812 186.882812 183.746094 186.984375 C 183.234375 187.085938 182.753906 187.132812 182.300781 187.132812 C 181.394531 187.132812 180.507812 187.027344 179.640625 186.816406 C 178.777344 186.597656 177.964844 186.207031 177.199219 185.636719 C 176.464844 185.09375 175.863281 184.363281 175.410156 183.445312 C 174.957031 182.535156 174.574219 181.648438 174.261719 180.789062 C 173.101562 182.472656 171.742188 183.875 170.183594 184.992188 C 168.59375 186.078125 167.046875 186.621094 165.546875 186.621094 C 163.960938 186.621094 162.527344 186.558594 161.253906 186.429688 C 159.976562 186.300781 158.886719 186.128906 157.976562 185.910156 C 157.070312 185.699219 156.375 185.433594 155.894531 185.121094 C 155.414062 184.804688 155.171875 184.460938 155.171875 184.09375 C 155.171875 183.492188 155.34375 182.761719 155.6875 181.902344 C 156.023438 181.046875 156.484375 180.148438 157.066406 179.203125 C 157.648438 178.261719 158.308594 177.320312 159.042969 176.375 C 159.78125 175.429688 160.542969 174.570312 161.339844 173.800781 C 161.652344 173.488281 162.160156 173.117188 162.867188 172.6875 C 163.578125 172.257812 164.398438 171.792969 165.332031 171.296875 C 166.269531 170.792969 167.300781 170.273438 168.417969 169.730469 C 169.539062 169.1875 170.675781 168.640625 171.84375 168.097656 C 171.785156 167.898438 171.71875 167.640625 171.652344 167.328125 C 171.578125 167.015625 171.507812 166.683594 171.4375 166.34375 C 171.367188 166 171.308594 165.679688 171.265625 165.378906 C 171.226562 165.078125 171.203125 164.8125 171.203125 164.585938 C 171.203125 163.640625 171.527344 162.554688 172.179688 161.324219 C 172.722656 160.355469 173.445312 159.324219 174.347656 158.242188 L 175.496094 165.269531 C 175.808594 167.042969 176.117188 168.738281 176.414062 170.351562 C 176.710938 171.964844 177.011719 173.542969 177.328125 175.089844 C 177.664062 176.660156 178.25 177.851562 179.089844 178.667969 C 179.925781 179.484375 181.152344 179.890625 182.765625 179.890625 C 183.421875 179.890625 184.042969 179.785156 184.636719 179.566406 C 185.230469 179.355469 185.730469 179.101562 186.128906 178.816406 C 186.46875 178.589844 186.871094 178.253906 187.335938 177.8125 C 187.808594 177.367188 188.324219 176.71875 188.890625 175.863281 L 186.378906 164.160156 C 186.265625 163.699219 186.183594 163.28125 186.128906 162.914062 C 186.070312 162.542969 186.015625 162.214844 185.953125 161.929688 C 185.84375 161.355469 185.765625 160.867188 185.722656 160.46875 C 185.679688 160.070312 185.65625 159.753906 185.65625 159.527344 C 185.65625 158.554688 185.988281 157.453125 186.636719 156.222656 C 186.921875 155.738281 187.242188 155.246094 187.59375 154.746094 C 187.949219 154.246094 188.351562 153.726562 188.804688 153.183594 Z M 166.003906 144.808594 C 165.722656 144.808594 165.503906 144.910156 165.347656 145.113281 C 165.191406 145.3125 165.113281 145.511719 165.113281 145.714844 C 165.113281 146.339844 165.464844 147 166.175781 147.683594 L 168.046875 149.140625 C 168.269531 148.570312 168.382812 148.167969 168.382812 147.945312 C 168.382812 147.167969 168.113281 146.457031 167.578125 145.796875 C 167.039062 145.140625 166.511719 144.808594 166.003906 144.808594 Z M 168.128906 141.253906 C 168.871094 141.253906 169.53125 141.652344 170.128906 142.457031 C 170.722656 143.253906 171.019531 144.226562 171.019531 145.367188 C 171.019531 145.910156 170.941406 146.476562 170.785156 147.0625 C 170.628906 147.648438 170.269531 148.726562 169.703125 150.296875 C 170.15625 150.699219 170.625 151.085938 171.105469 151.460938 C 171.417969 151.773438 171.574219 152.214844 171.574219 152.785156 C 171.574219 153.269531 171.53125 153.773438 171.445312 154.289062 C 171.363281 154.800781 171.277344 155.316406 171.191406 155.832031 L 167.660156 153.683594 C 166.242188 155.257812 165.28125 156.300781 164.769531 156.816406 C 162.675781 158.875 160.914062 159.902344 159.5 159.902344 L 156.394531 159.902344 C 157.898438 159.1875 159.65625 158.03125 161.667969 156.429688 C 163.480469 154.96875 164.859375 153.683594 165.789062 152.570312 C 164.914062 152.03125 164.25 151.460938 163.792969 150.855469 C 163.222656 150.113281 162.941406 149.296875 162.941406 148.414062 C 162.941406 146.527344 163.488281 144.859375 164.578125 143.417969 C 165.671875 141.976562 166.855469 141.253906 168.128906 141.253906 Z M 193.355469 137.488281 C 193.464844 138.03125 193.574219 138.640625 193.671875 139.3125 C 193.773438 139.984375 193.824219 140.574219 193.824219 141.089844 C 193.824219 143.234375 193.453125 144.996094 192.714844 146.363281 C 191.894531 147.90625 190.761719 148.679688 189.316406 148.679688 C 188.804688 148.679688 188.339844 148.59375 187.914062 148.421875 C 187.488281 148.253906 187.007812 147.980469 186.46875 147.605469 C 185.871094 148.640625 185.320312 149.410156 184.808594 149.925781 C 183.902344 150.835938 182.953125 151.292969 181.960938 151.292969 C 180.765625 151.292969 179.875 150.886719 179.28125 150.074219 C 178.6875 149.257812 178.390625 148.136719 178.390625 146.707031 C 178.390625 145.964844 178.488281 145.234375 178.6875 144.519531 C 178.882812 143.804688 179.167969 142.988281 179.535156 142.078125 L 180.429688 141.691406 C 180.429688 141.921875 180.402344 142.292969 180.34375 142.804688 C 180.289062 143.320312 180.261719 143.75 180.261719 144.089844 C 180.261719 144.722656 180.386719 145.285156 180.644531 145.785156 C 180.894531 146.285156 181.28125 146.539062 181.789062 146.539062 C 183.007812 146.539062 183.988281 145.738281 184.722656 144.136719 C 185.0625 143.390625 185.488281 141.949219 186 139.804688 L 186.894531 139.546875 C 187.117188 140.949219 187.304688 141.804688 187.445312 142.121094 C 187.785156 143.007812 188.351562 143.449219 189.144531 143.449219 C 190.222656 143.449219 191.074219 142.738281 191.695312 141.308594 C 192.207031 140.160156 192.460938 138.976562 192.460938 137.746094 Z M 215.546875 134.1875 C 216.003906 137.445312 216.578125 141.90625 217.273438 147.566406 C 217.96875 153.222656 218.511719 158.324219 218.910156 162.867188 C 219.417969 168.53125 219.671875 172.804688 219.671875 175.6875 C 219.671875 177.972656 219.261719 180.1875 218.4375 182.332031 C 218.015625 183.480469 217.09375 185.289062 215.675781 187.777344 L 214.910156 187.347656 C 215 186.519531 215.074219 185.5625 215.144531 184.480469 C 215.21875 183.390625 215.25 182.664062 215.25 182.289062 C 215.25 179.316406 215.015625 175.167969 214.550781 169.835938 C 214.082031 164.507812 213.519531 158.941406 212.871094 153.136719 C 212.472656 149.621094 212.035156 146.035156 211.554688 142.378906 C 212.121094 141.121094 212.765625 139.765625 213.488281 138.304688 C 214.210938 136.847656 214.898438 135.476562 215.546875 134.1875 Z M 186.082031 125.574219 C 187.191406 128.945312 187.742188 131.128906 187.742188 132.128906 C 187.742188 133.671875 187.257812 135.519531 186.296875 137.664062 L 185.359375 137.488281 C 185.476562 136.433594 185.53125 135.664062 185.53125 135.175781 C 185.53125 133.230469 185.050781 131.273438 184.085938 129.300781 C 184.625 128.21875 185.292969 126.972656 186.082031 125.574219 Z M 186.082031 125.574219 " fill-opacity="1" fill-rule="evenodd"/></g></svg>