<svg xmlns="http://www.w3.org/2000/svg" xmlns:xlink="http://www.w3.org/1999/xlink" width="720" zoomAndPan="magnify" viewBox="0 0 540 540.000001" height="720" preserveAspectRatio="xMidYMid meet" version="1.0"><defs><g/><clipPath id="c9464737b5"><path d="M 62.097656 0 L 477.578125 0 L 477.578125 415.480469 L 62.097656 415.480469 Z M 62.097656 0 " clip-rule="nonzero"/></clipPath><clipPath id="b8505c102a"><path d="M 54.398438 414.304688 L 485.8125 414.304688 L 485.8125 531.421875 L 54.398438 531.421875 Z M 54.398438 414.304688 " clip-rule="nonzero"/></clipPath><clipPath id="f79b47da58"><path d="M 79.851562 414.304688 L 460.148438 414.304688 C 466.898438 414.304688 473.371094 416.984375 478.144531 421.757812 C 482.917969 426.53125 485.601562 433.007812 485.601562 439.757812 L 485.601562 505.96875 C 485.601562 512.71875 482.917969 519.195312 478.144531 523.96875 C 473.371094 528.742188 466.898438 531.421875 460.148438 531.421875 L 79.851562 531.421875 C 73.101562 531.421875 66.628906 528.742188 61.855469 523.96875 C 57.082031 519.195312 54.398438 512.71875 54.398438 505.96875 L 54.398438 439.757812 C 54.398438 433.007812 57.082031 426.53125 61.855469 421.757812 C 66.628906 416.984375 73.101562 414.304688 79.851562 414.304688 Z M 79.851562 414.304688 " clip-rule="nonzero"/></clipPath></defs><g clip-path="url(#c9464737b5)"><path fill="#0fb73b" d="M 477.59375 207.742188 C 477.59375 211.140625 477.507812 214.539062 477.339844 217.933594 C 477.175781 221.332031 476.925781 224.71875 476.589844 228.105469 C 476.257812 231.488281 475.84375 234.859375 475.34375 238.222656 C 474.84375 241.585938 474.261719 244.9375 473.601562 248.269531 C 472.9375 251.605469 472.191406 254.921875 471.367188 258.21875 C 470.539062 261.519531 469.632812 264.792969 468.644531 268.046875 C 467.660156 271.300781 466.59375 274.527344 465.449219 277.730469 C 464.300781 280.929688 463.078125 284.101562 461.777344 287.242188 C 460.476562 290.386719 459.097656 293.492188 457.644531 296.566406 C 456.191406 299.640625 454.664062 302.675781 453.0625 305.675781 C 451.457031 308.671875 449.78125 311.628906 448.035156 314.546875 C 446.285156 317.460938 444.46875 320.335938 442.578125 323.160156 C 440.691406 325.988281 438.734375 328.765625 436.707031 331.5 C 434.683594 334.230469 432.589844 336.910156 430.433594 339.535156 C 428.277344 342.164062 426.058594 344.738281 423.773438 347.257812 C 421.492188 349.777344 419.148438 352.238281 416.742188 354.644531 C 414.339844 357.046875 411.875 359.390625 409.355469 361.675781 C 406.839844 363.957031 404.265625 366.179688 401.636719 368.335938 C 399.007812 370.492188 396.328125 372.582031 393.597656 374.609375 C 390.867188 376.632812 388.085938 378.589844 385.261719 380.480469 C 382.433594 382.367188 379.5625 384.1875 376.644531 385.933594 C 373.730469 387.683594 370.773438 389.359375 367.773438 390.960938 C 364.773438 392.5625 361.738281 394.09375 358.664062 395.546875 C 355.589844 397 352.484375 398.378906 349.34375 399.679688 C 346.203125 400.980469 343.03125 402.203125 339.828125 403.347656 C 336.628906 404.492188 333.402344 405.558594 330.148438 406.546875 C 326.894531 407.535156 323.617188 408.441406 320.320312 409.265625 C 317.019531 410.09375 313.703125 410.835938 310.371094 411.5 C 307.035156 412.164062 303.6875 412.746094 300.324219 413.242188 C 296.960938 413.742188 293.585938 414.160156 290.203125 414.492188 C 286.820312 414.824219 283.429688 415.074219 280.035156 415.242188 C 276.636719 415.410156 273.238281 415.492188 269.839844 415.492188 C 266.441406 415.492188 263.042969 415.410156 259.644531 415.242188 C 256.25 415.074219 252.859375 414.824219 249.476562 414.492188 C 246.09375 414.160156 242.71875 413.742188 239.355469 413.242188 C 235.992188 412.746094 232.644531 412.164062 229.308594 411.5 C 225.972656 410.835938 222.65625 410.09375 219.359375 409.265625 C 216.0625 408.441406 212.785156 407.535156 209.53125 406.546875 C 206.277344 405.558594 203.050781 404.492188 199.851562 403.347656 C 196.648438 402.203125 193.476562 400.980469 190.335938 399.679688 C 187.195312 398.378906 184.085938 397 181.015625 395.546875 C 177.941406 394.09375 174.90625 392.5625 171.90625 390.960938 C 168.90625 389.359375 165.949219 387.683594 163.035156 385.933594 C 160.117188 384.1875 157.246094 382.367188 154.417969 380.480469 C 151.589844 378.589844 148.8125 376.632812 146.082031 374.609375 C 143.351562 372.582031 140.671875 370.492188 138.042969 368.335938 C 135.414062 366.179688 132.839844 363.957031 130.320312 361.675781 C 127.800781 359.390625 125.339844 357.046875 122.9375 354.644531 C 120.53125 352.238281 118.1875 349.777344 115.90625 347.257812 C 113.621094 344.738281 111.402344 342.164062 109.246094 339.535156 C 107.089844 336.910156 104.996094 334.230469 102.972656 331.5 C 100.945312 328.765625 98.988281 325.988281 97.101562 323.160156 C 95.210938 320.335938 93.390625 317.460938 91.644531 314.546875 C 89.898438 311.628906 88.222656 308.671875 86.617188 305.675781 C 85.015625 302.675781 83.488281 299.640625 82.035156 296.566406 C 80.578125 293.492188 79.203125 290.386719 77.902344 287.242188 C 76.601562 284.101562 75.378906 280.929688 74.230469 277.730469 C 73.085938 274.527344 72.019531 271.300781 71.03125 268.046875 C 70.046875 264.792969 69.140625 261.519531 68.3125 258.21875 C 67.488281 254.921875 66.742188 251.605469 66.078125 248.269531 C 65.414062 244.9375 64.835938 241.585938 64.335938 238.222656 C 63.835938 234.859375 63.421875 231.488281 63.085938 228.105469 C 62.753906 224.71875 62.503906 221.332031 62.335938 217.933594 C 62.171875 214.539062 62.085938 211.140625 62.085938 207.742188 C 62.085938 204.339844 62.171875 200.941406 62.335938 197.546875 C 62.503906 194.152344 62.753906 190.761719 63.085938 187.378906 C 63.421875 183.992188 63.835938 180.621094 64.335938 177.257812 C 64.835938 173.894531 65.414062 170.542969 66.078125 167.210938 C 66.742188 163.875 67.488281 160.558594 68.3125 157.261719 C 69.140625 153.960938 70.046875 150.6875 71.03125 147.433594 C 72.019531 144.179688 73.085938 140.953125 74.230469 137.75 C 75.378906 134.550781 76.601562 131.378906 77.902344 128.238281 C 79.203125 125.097656 80.578125 121.988281 82.035156 118.914062 C 83.488281 115.839844 85.015625 112.804688 86.617188 109.804688 C 88.222656 106.808594 89.898438 103.851562 91.644531 100.933594 C 93.390625 98.019531 95.210938 95.144531 97.101562 92.320312 C 98.988281 89.492188 100.945312 86.714844 102.972656 83.984375 C 104.996094 81.25 107.089844 78.570312 109.246094 75.945312 C 111.402344 73.316406 113.621094 70.742188 115.90625 68.222656 C 118.1875 65.703125 120.53125 63.242188 122.9375 60.835938 C 125.339844 58.433594 127.800781 56.089844 130.320312 53.804688 C 132.839844 51.523438 135.414062 49.300781 138.042969 47.144531 C 140.671875 44.988281 143.351562 42.898438 146.082031 40.871094 C 148.8125 38.847656 151.589844 36.890625 154.417969 35 C 157.246094 33.113281 160.117188 31.292969 163.035156 29.546875 C 165.949219 27.796875 168.90625 26.121094 171.90625 24.519531 C 174.90625 22.917969 177.941406 21.386719 181.015625 19.933594 C 184.085938 18.480469 187.195312 17.101562 190.335938 15.800781 C 193.476562 14.5 196.648438 13.277344 199.851562 12.132812 C 203.050781 10.988281 206.277344 9.921875 209.53125 8.933594 C 212.785156 7.945312 216.0625 7.039062 219.359375 6.214844 C 222.65625 5.386719 225.972656 4.644531 229.308594 3.980469 C 232.644531 3.316406 235.992188 2.734375 239.355469 2.238281 C 242.71875 1.738281 246.09375 1.320312 249.476562 0.988281 C 252.859375 0.65625 256.25 0.40625 259.644531 0.238281 C 263.042969 0.0703125 266.441406 -0.0117188 269.839844 -0.0117188 C 273.238281 -0.0117188 276.636719 0.0703125 280.035156 0.238281 C 283.429688 0.40625 286.820312 0.65625 290.203125 0.988281 C 293.585938 1.320312 296.960938 1.738281 300.324219 2.238281 C 303.6875 2.734375 307.035156 3.316406 310.371094 3.980469 C 313.703125 4.644531 317.019531 5.386719 320.320312 6.214844 C 323.617188 7.039062 326.894531 7.945312 330.148438 8.933594 C 333.402344 9.921875 336.628906 10.988281 339.828125 12.132812 C 343.03125 13.277344 346.203125 14.5 349.34375 15.800781 C 352.484375 17.101562 355.589844 18.480469 358.664062 19.933594 C 361.738281 21.386719 364.773438 22.917969 367.773438 24.519531 C 370.773438 26.121094 373.730469 27.796875 376.644531 29.546875 C 379.5625 31.292969 382.433594 33.113281 385.261719 35 C 388.085938 36.890625 390.867188 38.847656 393.597656 40.871094 C 396.328125 42.898438 399.007812 44.988281 401.636719 47.144531 C 404.265625 49.300781 406.839844 51.523438 409.355469 53.804688 C 411.875 56.089844 414.339844 58.433594 416.742188 60.835938 C 419.148438 63.242188 421.492188 65.703125 423.773438 68.222656 C 426.058594 70.742188 428.277344 73.316406 430.433594 75.945312 C 432.589844 78.570312 434.683594 81.25 436.707031 83.984375 C 438.734375 86.714844 440.691406 89.492188 442.578125 92.320312 C 444.46875 95.144531 446.285156 98.019531 448.035156 100.933594 C 449.78125 103.851562 451.457031 106.808594 453.0625 109.804688 C 454.664062 112.804688 456.191406 115.839844 457.644531 118.914062 C 459.097656 121.988281 460.476562 125.097656 461.777344 128.238281 C 463.078125 131.378906 464.300781 134.550781 465.449219 137.75 C 466.59375 140.953125 467.660156 144.179688 468.644531 147.433594 C 469.632812 150.6875 470.539062 153.960938 471.367188 157.261719 C 472.191406 160.558594 472.9375 163.875 473.601562 167.210938 C 474.261719 170.542969 474.84375 173.894531 475.34375 177.257812 C 475.84375 180.621094 476.257812 183.992188 476.589844 187.378906 C 476.925781 190.761719 477.175781 194.152344 477.339844 197.546875 C 477.507812 200.941406 477.59375 204.339844 477.59375 207.742188 Z M 477.59375 207.742188 " fill-opacity="1" fill-rule="nonzero"/></g><path fill="#ffffff" d="M 269.839844 364.992188 C 248.617188 364.992188 228.019531 360.835938 208.625 352.632812 C 189.898438 344.710938 173.082031 333.375 158.644531 318.933594 C 144.207031 304.496094 132.871094 287.679688 124.949219 268.953125 C 116.746094 249.558594 112.585938 228.964844 112.585938 207.742188 C 112.585938 186.515625 116.746094 165.921875 124.949219 146.527344 C 132.871094 127.800781 144.207031 110.984375 158.644531 96.546875 C 173.082031 82.105469 189.898438 70.769531 208.625 62.847656 C 228.019531 54.648438 248.617188 50.488281 269.839844 50.488281 C 291.0625 50.488281 311.660156 54.644531 331.054688 62.847656 C 349.777344 70.769531 366.597656 82.105469 381.035156 96.546875 C 395.472656 110.984375 406.808594 127.800781 414.730469 146.527344 C 422.933594 165.921875 427.09375 186.515625 427.09375 207.742188 C 427.09375 228.964844 422.933594 249.558594 414.730469 268.953125 C 406.808594 287.679688 395.472656 304.496094 381.035156 318.933594 C 366.597656 333.375 349.777344 344.710938 331.054688 352.632812 C 311.660156 360.832031 291.0625 364.992188 269.839844 364.992188 Z M 269.839844 71.59375 C 233.472656 71.59375 199.285156 85.753906 173.570312 111.472656 C 147.855469 137.183594 133.691406 171.375 133.691406 207.742188 C 133.691406 244.105469 147.855469 278.296875 173.570312 304.011719 C 199.285156 329.726562 233.472656 343.886719 269.839844 343.886719 C 306.207031 343.886719 340.394531 329.726562 366.109375 304.011719 C 391.824219 278.296875 405.984375 244.105469 405.984375 207.742188 C 405.984375 171.375 391.824219 137.1875 366.109375 111.472656 C 340.394531 85.757812 306.207031 71.59375 269.839844 71.59375 Z M 269.839844 71.59375 " fill-opacity="1" fill-rule="nonzero"/><path fill="#ffffff" d="M 338.714844 269.117188 L 340.308594 267.523438 C 348.148438 259.683594 347.101562 246.683594 338.109375 240.199219 L 324.855469 230.636719 C 316.417969 224.550781 304.8125 225.484375 297.453125 232.84375 L 295.664062 234.632812 C 290.707031 239.589844 283.070312 240.6875 276.925781 237.3125 C 261.632812 228.898438 249.445312 216.625 240.355469 200.488281 C 236.871094 194.296875 237.882812 186.550781 242.90625 181.527344 L 244.523438 179.910156 C 251.878906 172.554688 252.8125 160.949219 246.726562 152.511719 L 237.167969 139.253906 C 230.679688 130.261719 217.683594 129.21875 209.84375 137.058594 L 208.703125 138.199219 C 192.429688 154.46875 189.40625 179.769531 201.398438 199.40625 C 221.0625 231.605469 246.300781 257.355469 277.390625 276.34375 C 297.070312 288.367188 322.40625 285.421875 338.714844 269.117188 Z M 338.714844 269.117188 " fill-opacity="1" fill-rule="nonzero"/><g clip-path="url(#b8505c102a)"><g clip-path="url(#f79b47da58)"><path fill="#0fb73b" d="M 54.398438 414.304688 L 485.8125 414.304688 L 485.8125 531.421875 L 54.398438 531.421875 Z M 54.398438 414.304688 " fill-opacity="1" fill-rule="nonzero"/></g></g><g fill="#ffffff" fill-opacity="1"><g transform="translate(109.84027, 488.95936)"><g><path d="M 39.234375 -39.5 C 38.679688 -38.226562 37.742188 -37.34375 36.421875 -36.84375 C 35.109375 -36.34375 33.816406 -36.367188 32.546875 -36.921875 C 30.617188 -37.785156 28.5 -38.21875 26.1875 -38.21875 C 21.613281 -38.21875 17.8125 -36.601562 14.78125 -33.375 C 11.75 -30.144531 10.234375 -26.117188 10.234375 -21.296875 C 10.234375 -16.660156 11.703125 -12.875 14.640625 -9.9375 C 17.578125 -7 21.378906 -5.53125 26.046875 -5.53125 C 28.671875 -5.53125 31.117188 -6.128906 33.390625 -7.328125 C 34.609375 -7.972656 35.882812 -8.085938 37.21875 -7.671875 C 38.5625 -7.253906 39.554688 -6.429688 40.203125 -5.203125 C 40.847656 -3.984375 40.960938 -2.703125 40.546875 -1.359375 C 40.128906 -0.0234375 39.304688 0.960938 38.078125 1.609375 C 34.328125 3.578125 30.316406 4.5625 26.046875 4.5625 C 21.179688 4.5625 16.765625 3.429688 12.796875 1.171875 C 8.828125 -1.085938 5.710938 -4.195312 3.453125 -8.15625 C 1.191406 -12.113281 0.0625 -16.492188 0.0625 -21.296875 C 0.0625 -24.898438 0.710938 -28.359375 2.015625 -31.671875 C 3.328125 -34.984375 5.117188 -37.863281 7.390625 -40.3125 C 9.671875 -42.769531 12.445312 -44.726562 15.71875 -46.1875 C 18.988281 -47.644531 22.476562 -48.375 26.1875 -48.375 C 29.914062 -48.375 33.410156 -47.644531 36.671875 -46.1875 C 37.929688 -45.632812 38.8125 -44.695312 39.3125 -43.375 C 39.820312 -42.050781 39.796875 -40.757812 39.234375 -39.5 Z M 39.234375 -39.5 "/></g></g></g><g fill="#ffffff" fill-opacity="1"><g transform="translate(150.717264, 488.95936)"><g><path d="M 18.234375 -27.140625 C 15.921875 -27.140625 14.007812 -26.085938 12.5 -23.984375 C 10.988281 -21.890625 10.234375 -19.101562 10.234375 -15.625 C 10.234375 -12.601562 10.945312 -10.164062 12.375 -8.3125 C 13.8125 -6.457031 15.476562 -5.53125 17.375 -5.53125 C 19.40625 -5.53125 21.257812 -6.664062 22.9375 -8.9375 C 24.625 -11.21875 25.46875 -14.007812 25.46875 -17.3125 C 25.46875 -20.195312 24.765625 -22.554688 23.359375 -24.390625 C 21.960938 -26.222656 20.253906 -27.140625 18.234375 -27.140625 Z M 18.234375 -37.25 C 20.503906 -37.25 22.609375 -36.835938 24.546875 -36.015625 C 26.492188 -35.203125 28.128906 -34.125 29.453125 -32.78125 C 30.785156 -31.445312 31.914062 -29.910156 32.84375 -28.171875 C 33.78125 -26.441406 34.46875 -24.65625 34.90625 -22.8125 C 35.351562 -20.96875 35.578125 -19.132812 35.578125 -17.3125 C 35.578125 -15.332031 35.335938 -13.328125 34.859375 -11.296875 C 34.390625 -9.273438 33.65625 -7.3125 32.65625 -5.40625 C 31.664062 -3.5 30.46875 -1.804688 29.0625 -0.328125 C 27.65625 1.148438 25.941406 2.332031 23.921875 3.21875 C 21.910156 4.113281 19.726562 4.5625 17.375 4.5625 C 15.1875 4.5625 13.144531 4.171875 11.25 3.390625 C 9.363281 2.609375 7.742188 1.550781 6.390625 0.21875 C 5.046875 -1.101562 3.890625 -2.632812 2.921875 -4.375 C 1.960938 -6.113281 1.242188 -7.941406 0.765625 -9.859375 C 0.296875 -11.773438 0.0625 -13.695312 0.0625 -15.625 C 0.0625 -17.28125 0.222656 -18.9375 0.546875 -20.59375 C 0.867188 -22.257812 1.335938 -23.898438 1.953125 -25.515625 C 2.578125 -27.140625 3.398438 -28.65625 4.421875 -30.0625 C 5.441406 -31.46875 6.597656 -32.703125 7.890625 -33.765625 C 9.191406 -34.835938 10.734375 -35.6875 12.515625 -36.3125 C 14.296875 -36.9375 16.203125 -37.25 18.234375 -37.25 Z M 18.234375 -37.25 "/></g></g></g><g fill="#ffffff" fill-opacity="1"><g transform="translate(186.38413, 488.95936)"><g><path d="M 3.640625 -36.1875 C 4.710938 -37.0625 5.941406 -37.4375 7.328125 -37.3125 C 8.722656 -37.1875 9.863281 -36.585938 10.75 -35.515625 C 11.789062 -34.242188 12.457031 -32.707031 12.75 -30.90625 C 13.039062 -29.101562 13.1875 -26.800781 13.1875 -24 C 13.1875 -18.875 12.617188 -10.703125 11.484375 0.515625 C 11.335938 1.890625 10.71875 3.023438 9.625 3.921875 C 8.53125 4.828125 7.296875 5.203125 5.921875 5.046875 C 4.546875 4.898438 3.40625 4.28125 2.5 3.1875 C 1.601562 2.09375 1.234375 0.859375 1.390625 -0.515625 C 2.523438 -11.617188 3.09375 -19.445312 3.09375 -24 C 3.09375 -27.164062 2.875 -29.082031 2.4375 -29.75 C 1.820312 -30.65625 1.617188 -31.75 1.828125 -33.03125 C 2.046875 -34.320312 2.648438 -35.375 3.640625 -36.1875 Z M 6.296875 -8.359375 C 4.972656 -8.722656 3.957031 -9.515625 3.25 -10.734375 C 2.539062 -11.960938 2.367188 -13.242188 2.734375 -14.578125 C 3.160156 -16.160156 3.570312 -17.582031 3.96875 -18.84375 C 4.363281 -20.113281 4.890625 -21.5625 5.546875 -23.1875 C 6.203125 -24.820312 6.878906 -26.265625 7.578125 -27.515625 C 8.273438 -28.773438 9.117188 -30.035156 10.109375 -31.296875 C 11.109375 -32.554688 12.164062 -33.597656 13.28125 -34.421875 C 14.394531 -35.253906 15.691406 -35.929688 17.171875 -36.453125 C 18.648438 -36.984375 20.226562 -37.25 21.90625 -37.25 C 23.488281 -37.25 24.921875 -37.007812 26.203125 -36.53125 C 27.492188 -36.0625 28.5625 -35.460938 29.40625 -34.734375 C 30.257812 -34.003906 31.003906 -33.109375 31.640625 -32.046875 C 32.285156 -30.984375 32.773438 -29.9375 33.109375 -28.90625 C 33.441406 -27.882812 33.710938 -26.753906 33.921875 -25.515625 C 34.140625 -24.285156 34.273438 -23.222656 34.328125 -22.328125 C 34.390625 -21.441406 34.421875 -20.53125 34.421875 -19.59375 C 34.421875 -17.632812 34.28125 -15.457031 34 -13.0625 C 33.757812 -10.976562 33.640625 -8.992188 33.640625 -7.109375 C 33.640625 -4.898438 33.898438 -3.21875 34.421875 -2.0625 C 34.972656 -0.8125 34.992188 0.472656 34.484375 1.796875 C 33.984375 3.128906 33.101562 4.070312 31.84375 4.625 C 30.582031 5.1875 29.289062 5.210938 27.96875 4.703125 C 26.644531 4.203125 25.707031 3.320312 25.15625 2.0625 C 24.039062 -0.488281 23.484375 -3.546875 23.484375 -7.109375 C 23.484375 -9.316406 23.644531 -11.707031 23.96875 -14.28125 C 24.195312 -16.269531 24.3125 -18.039062 24.3125 -19.59375 C 24.3125 -21.21875 24.242188 -22.5625 24.109375 -23.625 C 23.972656 -24.6875 23.773438 -25.453125 23.515625 -25.921875 C 23.253906 -26.398438 23.003906 -26.710938 22.765625 -26.859375 C 22.535156 -27.003906 22.25 -27.078125 21.90625 -27.078125 C 20.40625 -27.078125 18.804688 -25.804688 17.109375 -23.265625 C 15.421875 -20.722656 13.890625 -16.945312 12.515625 -11.9375 C 12.148438 -10.601562 11.351562 -9.582031 10.125 -8.875 C 8.90625 -8.164062 7.628906 -7.992188 6.296875 -8.359375 Z M 6.296875 -8.359375 "/></g></g></g><g fill="#ffffff" fill-opacity="1"><g transform="translate(222.597733, 488.95936)"><g><path d="M 24.796875 -25.734375 C 24.628906 -24.359375 23.988281 -23.238281 22.875 -22.375 C 21.757812 -21.519531 20.515625 -21.179688 19.140625 -21.359375 C 17.078125 -21.617188 14.859375 -21.75 12.484375 -21.75 C 10.179688 -21.75 7.9375 -21.617188 5.75 -21.359375 C 4.382812 -21.179688 3.144531 -21.523438 2.03125 -22.390625 C 0.914062 -23.265625 0.28125 -24.390625 0.125 -25.765625 C -0.0390625 -27.140625 0.304688 -28.382812 1.171875 -29.5 C 2.046875 -30.613281 3.164062 -31.242188 4.53125 -31.390625 C 7 -31.691406 9.648438 -31.84375 12.484375 -31.84375 C 15.378906 -31.84375 18.023438 -31.691406 20.421875 -31.390625 C 21.796875 -31.222656 22.910156 -30.582031 23.765625 -29.46875 C 24.628906 -28.351562 24.972656 -27.109375 24.796875 -25.734375 Z M 13.515625 -44.125 C 14.878906 -43.957031 15.992188 -43.328125 16.859375 -42.234375 C 17.734375 -41.140625 18.097656 -39.90625 17.953125 -38.53125 C 16.703125 -27.875 16.078125 -18.835938 16.078125 -11.421875 C 16.078125 -7.492188 16.488281 -5.53125 17.3125 -5.53125 C 17.695312 -5.53125 18.1875 -5.582031 18.78125 -5.6875 C 20.132812 -5.945312 21.390625 -5.675781 22.546875 -4.875 C 23.703125 -4.070312 24.410156 -2.992188 24.671875 -1.640625 C 24.929688 -0.285156 24.65625 0.972656 23.84375 2.140625 C 23.039062 3.304688 21.96875 4.019531 20.625 4.28125 C 19.59375 4.46875 18.488281 4.5625 17.3125 4.5625 C 15.9375 4.5625 14.6875 4.359375 13.5625 3.953125 C 12.4375 3.546875 11.484375 3.003906 10.703125 2.328125 C 9.929688 1.648438 9.253906 0.847656 8.671875 -0.078125 C 8.097656 -1.015625 7.644531 -1.953125 7.3125 -2.890625 C 6.976562 -3.835938 6.703125 -4.859375 6.484375 -5.953125 C 6.273438 -7.046875 6.140625 -8.015625 6.078125 -8.859375 C 6.015625 -9.703125 5.984375 -10.554688 5.984375 -11.421875 C 5.984375 -19.078125 6.625 -28.5 7.90625 -39.6875 C 8.082031 -41.0625 8.71875 -42.179688 9.8125 -43.046875 C 10.90625 -43.921875 12.140625 -44.28125 13.515625 -44.125 Z M 13.515625 -44.125 "/></g></g></g><g fill="#ffffff" fill-opacity="1"><g transform="translate(247.522732, 488.95936)"><g><path d="M 16.765625 -5.53125 C 21.523438 -5.53125 24.4375 -9.488281 25.5 -17.40625 L 27.5625 -32.390625 C 27.757812 -33.765625 28.414062 -34.878906 29.53125 -35.734375 C 30.644531 -36.585938 31.882812 -36.914062 33.25 -36.71875 C 34.625 -36.53125 35.738281 -35.878906 36.59375 -34.765625 C 37.457031 -33.648438 37.789062 -32.410156 37.59375 -31.046875 L 35.546875 -15.984375 C 35.367188 -14.722656 35.132812 -13.476562 34.84375 -12.25 C 34.5625 -11.03125 34.15625 -9.722656 33.625 -8.328125 C 33.101562 -6.929688 32.507812 -5.632812 31.84375 -4.4375 C 31.175781 -3.238281 30.34375 -2.078125 29.34375 -0.953125 C 28.351562 0.171875 27.265625 1.128906 26.078125 1.921875 C 24.898438 2.722656 23.515625 3.363281 21.921875 3.84375 C 20.328125 4.320312 18.609375 4.5625 16.765625 4.5625 C 14.617188 4.5625 12.625 4.210938 10.78125 3.515625 C 8.9375 2.828125 7.363281 1.894531 6.0625 0.71875 C 4.769531 -0.445312 3.664062 -1.804688 2.75 -3.359375 C 1.84375 -4.910156 1.164062 -6.539062 0.71875 -8.25 C 0.28125 -9.957031 0.0625 -11.703125 0.0625 -13.484375 C 0.0625 -15.515625 0.328125 -17.609375 0.859375 -19.765625 C 1.398438 -21.921875 2.25 -24.039062 3.40625 -26.125 C 4.5625 -28.21875 5.9375 -30.082031 7.53125 -31.71875 C 9.132812 -33.363281 11.09375 -34.695312 13.40625 -35.71875 C 15.726562 -36.738281 18.226562 -37.25 20.90625 -37.25 C 24.25 -37.25 27.273438 -36.335938 29.984375 -34.515625 C 31.117188 -33.742188 31.820312 -32.660156 32.09375 -31.265625 C 32.375 -29.867188 32.128906 -28.601562 31.359375 -27.46875 C 30.585938 -26.332031 29.503906 -25.625 28.109375 -25.34375 C 26.710938 -25.0625 25.445312 -25.3125 24.3125 -26.09375 C 23.28125 -26.789062 22.144531 -27.140625 20.90625 -27.140625 C 19.019531 -27.140625 17.242188 -26.46875 15.578125 -25.125 C 13.921875 -23.789062 12.613281 -22.066406 11.65625 -19.953125 C 10.707031 -17.847656 10.234375 -15.691406 10.234375 -13.484375 C 10.234375 -10.910156 10.789062 -8.941406 11.90625 -7.578125 C 13.019531 -6.210938 14.640625 -5.53125 16.765625 -5.53125 Z M 33.265625 -36.734375 C 34.628906 -36.535156 35.738281 -35.878906 36.59375 -34.765625 C 37.457031 -33.648438 37.789062 -32.410156 37.59375 -31.046875 L 35.28125 -14.21875 C 35.050781 -12.457031 34.9375 -10.859375 34.9375 -9.421875 C 34.9375 -8.285156 35 -7.515625 35.125 -7.109375 C 35.25 -6.703125 35.515625 -6.5 35.921875 -6.5 C 37.191406 -6.5 38.3125 -6 39.28125 -5 C 40.257812 -4 40.75 -2.8125 40.75 -1.4375 C 40.75 -0.0703125 40.25 1.109375 39.25 2.109375 C 38.257812 3.109375 37.066406 3.609375 35.671875 3.609375 C 34.171875 3.609375 32.796875 3.335938 31.546875 2.796875 C 30.304688 2.265625 29.28125 1.554688 28.46875 0.671875 C 27.65625 -0.203125 26.96875 -1.210938 26.40625 -2.359375 C 25.851562 -3.503906 25.453125 -4.664062 25.203125 -5.84375 C 24.953125 -7.03125 24.828125 -8.222656 24.828125 -9.421875 C 24.828125 -11.421875 24.96875 -13.46875 25.25 -15.5625 L 27.5625 -32.390625 C 27.757812 -33.765625 28.414062 -34.878906 29.53125 -35.734375 C 30.644531 -36.585938 31.890625 -36.921875 33.265625 -36.734375 Z M 33.265625 -36.734375 "/></g></g></g><g fill="#ffffff" fill-opacity="1"><g transform="translate(288.335403, 488.95936)"><g><path d="M 31.328125 -25.859375 C 30.429688 -24.804688 29.28125 -24.234375 27.875 -24.140625 C 26.46875 -24.046875 25.238281 -24.445312 24.1875 -25.34375 C 22.789062 -26.539062 21.28125 -27.140625 19.65625 -27.140625 C 18.175781 -27.140625 16.703125 -26.476562 15.234375 -25.15625 C 13.765625 -23.84375 12.5625 -22.097656 11.625 -19.921875 C 10.695312 -17.742188 10.234375 -15.507812 10.234375 -13.21875 C 10.234375 -10.664062 10.726562 -8.742188 11.71875 -7.453125 C 12.71875 -6.171875 14.472656 -5.53125 16.984375 -5.53125 C 19.921875 -5.53125 22.726562 -6.347656 25.40625 -7.984375 C 26.59375 -8.679688 27.867188 -8.859375 29.234375 -8.515625 C 30.609375 -8.179688 31.648438 -7.421875 32.359375 -6.234375 C 33.066406 -5.035156 33.25 -3.753906 32.90625 -2.390625 C 32.5625 -1.035156 31.800781 -0.00390625 30.625 0.703125 C 26.351562 3.273438 21.804688 4.5625 16.984375 4.5625 C 14.617188 4.5625 12.460938 4.191406 10.515625 3.453125 C 8.566406 2.710938 6.957031 1.75 5.6875 0.5625 C 4.425781 -0.625 3.359375 -2.003906 2.484375 -3.578125 C 1.617188 -5.160156 1 -6.753906 0.625 -8.359375 C 0.25 -9.972656 0.0625 -11.59375 0.0625 -13.21875 C 0.0625 -15.1875 0.300781 -17.234375 0.78125 -19.359375 C 1.269531 -21.484375 2.046875 -23.617188 3.109375 -25.765625 C 4.171875 -27.910156 5.441406 -29.828125 6.921875 -31.515625 C 8.398438 -33.210938 10.25 -34.59375 12.46875 -35.65625 C 14.6875 -36.71875 17.082031 -37.25 19.65625 -37.25 C 23.832031 -37.25 27.550781 -35.832031 30.8125 -33 C 31.863281 -32.101562 32.4375 -30.953125 32.53125 -29.546875 C 32.632812 -28.140625 32.234375 -26.910156 31.328125 -25.859375 Z M 31.328125 -25.859375 "/></g></g></g><g fill="#ffffff" fill-opacity="1"><g transform="translate(321.49369, 488.95936)"><g><path d="M 24.796875 -25.734375 C 24.628906 -24.359375 23.988281 -23.238281 22.875 -22.375 C 21.757812 -21.519531 20.515625 -21.179688 19.140625 -21.359375 C 17.078125 -21.617188 14.859375 -21.75 12.484375 -21.75 C 10.179688 -21.75 7.9375 -21.617188 5.75 -21.359375 C 4.382812 -21.179688 3.144531 -21.523438 2.03125 -22.390625 C 0.914062 -23.265625 0.28125 -24.390625 0.125 -25.765625 C -0.0390625 -27.140625 0.304688 -28.382812 1.171875 -29.5 C 2.046875 -30.613281 3.164062 -31.242188 4.53125 -31.390625 C 7 -31.691406 9.648438 -31.84375 12.484375 -31.84375 C 15.378906 -31.84375 18.023438 -31.691406 20.421875 -31.390625 C 21.796875 -31.222656 22.910156 -30.582031 23.765625 -29.46875 C 24.628906 -28.351562 24.972656 -27.109375 24.796875 -25.734375 Z M 13.515625 -44.125 C 14.878906 -43.957031 15.992188 -43.328125 16.859375 -42.234375 C 17.734375 -41.140625 18.097656 -39.90625 17.953125 -38.53125 C 16.703125 -27.875 16.078125 -18.835938 16.078125 -11.421875 C 16.078125 -7.492188 16.488281 -5.53125 17.3125 -5.53125 C 17.695312 -5.53125 18.1875 -5.582031 18.78125 -5.6875 C 20.132812 -5.945312 21.390625 -5.675781 22.546875 -4.875 C 23.703125 -4.070312 24.410156 -2.992188 24.671875 -1.640625 C 24.929688 -0.285156 24.65625 0.972656 23.84375 2.140625 C 23.039062 3.304688 21.96875 4.019531 20.625 4.28125 C 19.59375 4.46875 18.488281 4.5625 17.3125 4.5625 C 15.9375 4.5625 14.6875 4.359375 13.5625 3.953125 C 12.4375 3.546875 11.484375 3.003906 10.703125 2.328125 C 9.929688 1.648438 9.253906 0.847656 8.671875 -0.078125 C 8.097656 -1.015625 7.644531 -1.953125 7.3125 -2.890625 C 6.976562 -3.835938 6.703125 -4.859375 6.484375 -5.953125 C 6.273438 -7.046875 6.140625 -8.015625 6.078125 -8.859375 C 6.015625 -9.703125 5.984375 -10.554688 5.984375 -11.421875 C 5.984375 -19.078125 6.625 -28.5 7.90625 -39.6875 C 8.082031 -41.0625 8.71875 -42.179688 9.8125 -43.046875 C 10.90625 -43.921875 12.140625 -44.28125 13.515625 -44.125 Z M 13.515625 -44.125 "/></g></g></g><g fill="#ffffff" fill-opacity="1"><g transform="translate(346.418678, 488.95936)"><g/></g></g><g fill="#ffffff" fill-opacity="1"><g transform="translate(363.142544, 488.95936)"><g><path d="M 9.078125 -36.1875 C 10.421875 -35.90625 11.472656 -35.164062 12.234375 -33.96875 C 12.992188 -32.769531 13.226562 -31.492188 12.9375 -30.140625 C 12.570312 -28.484375 12.242188 -25.992188 11.953125 -22.671875 C 11.660156 -19.347656 11.515625 -15.992188 11.515625 -12.609375 C 11.515625 -10.617188 11.660156 -9.085938 11.953125 -8.015625 C 12.242188 -6.941406 12.585938 -6.257812 12.984375 -5.96875 C 13.378906 -5.675781 13.921875 -5.53125 14.609375 -5.53125 C 15.648438 -5.53125 16.53125 -5.707031 17.25 -6.0625 C 17.96875 -6.414062 18.660156 -7.085938 19.328125 -8.078125 C 19.992188 -9.078125 20.578125 -10.519531 21.078125 -12.40625 C 21.585938 -14.300781 22.046875 -16.726562 22.453125 -19.6875 C 22.640625 -21.0625 23.296875 -22.171875 24.421875 -23.015625 C 25.554688 -23.859375 26.804688 -24.179688 28.171875 -23.984375 C 29.546875 -23.796875 30.65625 -23.140625 31.5 -22.015625 C 32.351562 -20.890625 32.679688 -19.640625 32.484375 -18.265625 C 32.140625 -15.710938 31.707031 -13.40625 31.1875 -11.34375 C 30.675781 -9.289062 29.957031 -7.238281 29.03125 -5.1875 C 28.113281 -3.144531 27.03125 -1.4375 25.78125 -0.0625 C 24.53125 1.3125 22.945312 2.425781 21.03125 3.28125 C 19.125 4.132812 16.984375 4.5625 14.609375 4.5625 C 12.503906 4.5625 10.632812 4.164062 9 3.375 C 7.375 2.582031 6.085938 1.585938 5.140625 0.390625 C 4.203125 -0.796875 3.4375 -2.191406 2.84375 -3.796875 C 2.257812 -5.398438 1.863281 -6.90625 1.65625 -8.3125 C 1.445312 -9.71875 1.34375 -11.148438 1.34375 -12.609375 C 1.34375 -20.609375 1.90625 -27.179688 3.03125 -32.328125 C 3.300781 -33.679688 4.035156 -34.738281 5.234375 -35.5 C 6.441406 -36.257812 7.722656 -36.488281 9.078125 -36.1875 Z M 28.046875 -36.28125 C 29.441406 -36.195312 30.601562 -35.628906 31.53125 -34.578125 C 32.46875 -33.523438 32.894531 -32.3125 32.8125 -30.9375 C 32.632812 -27.914062 32.546875 -24.453125 32.546875 -20.546875 C 32.546875 -16.691406 32.628906 -13.492188 32.796875 -10.953125 C 32.972656 -8.410156 33.375 -5.570312 34 -2.4375 C 34.28125 -1.09375 34.023438 0.160156 33.234375 1.328125 C 32.453125 2.503906 31.382812 3.226562 30.03125 3.5 C 28.6875 3.78125 27.429688 3.53125 26.265625 2.75 C 25.097656 1.96875 24.375 0.898438 24.09375 -0.453125 C 23.382812 -3.984375 22.921875 -7.234375 22.703125 -10.203125 C 22.492188 -13.179688 22.390625 -16.628906 22.390625 -20.546875 C 22.390625 -23.847656 22.492188 -27.503906 22.703125 -31.515625 C 22.796875 -32.910156 23.363281 -34.070312 24.40625 -35 C 25.457031 -35.9375 26.671875 -36.363281 28.046875 -36.28125 Z M 28.046875 -36.28125 "/></g></g></g><g fill="#ffffff" fill-opacity="1"><g transform="translate(398.616431, 488.95936)"><g><path d="M 27.5 -21.390625 C 26.195312 -20.984375 24.921875 -21.097656 23.671875 -21.734375 C 22.429688 -22.378906 21.597656 -23.367188 21.171875 -24.703125 C 20.628906 -26.328125 19.007812 -27.140625 16.3125 -27.140625 C 15 -27.140625 13.90625 -26.859375 13.03125 -26.296875 C 12.164062 -25.742188 11.734375 -25.148438 11.734375 -24.515625 C 11.785156 -23.765625 12.269531 -23.09375 13.1875 -22.5 C 14.113281 -21.90625 15.765625 -21.320312 18.140625 -20.75 C 18.890625 -20.550781 19.550781 -20.367188 20.125 -20.203125 C 20.707031 -20.046875 21.488281 -19.78125 22.46875 -19.40625 C 23.445312 -19.03125 24.304688 -18.628906 25.046875 -18.203125 C 25.785156 -17.773438 26.578125 -17.210938 27.421875 -16.515625 C 28.265625 -15.816406 28.960938 -15.066406 29.515625 -14.265625 C 30.078125 -13.460938 30.539062 -12.492188 30.90625 -11.359375 C 31.269531 -10.222656 31.453125 -9 31.453125 -7.6875 C 31.453125 -5.945312 31.097656 -4.359375 30.390625 -2.921875 C 29.679688 -1.484375 28.773438 -0.316406 27.671875 0.578125 C 26.566406 1.484375 25.300781 2.242188 23.875 2.859375 C 22.457031 3.484375 21.066406 3.921875 19.703125 4.171875 C 18.335938 4.429688 17.003906 4.5625 15.703125 4.5625 C 12.628906 4.5625 9.789062 4.035156 7.1875 2.984375 C 4.582031 1.941406 2.5 0.367188 0.9375 -1.734375 C 0.164062 -2.867188 -0.0820312 -4.128906 0.1875 -5.515625 C 0.46875 -6.898438 1.1875 -7.976562 2.34375 -8.75 C 2.90625 -9.113281 3.476562 -9.332031 4.0625 -9.40625 C 4.65625 -9.476562 5.253906 -9.414062 5.859375 -9.21875 C 6.472656 -9.03125 7.039062 -8.789062 7.5625 -8.5 C 8.09375 -8.21875 8.679688 -7.847656 9.328125 -7.390625 C 10.054688 -6.859375 10.992188 -6.414062 12.140625 -6.0625 C 13.285156 -5.707031 14.472656 -5.53125 15.703125 -5.53125 C 19.429688 -5.53125 21.296875 -6.207031 21.296875 -7.5625 C 21.296875 -8.957031 19.429688 -10.070312 15.703125 -10.90625 C 14.921875 -11.070312 14.253906 -11.222656 13.703125 -11.359375 C 13.160156 -11.503906 12.359375 -11.765625 11.296875 -12.140625 C 10.242188 -12.515625 9.328125 -12.910156 8.546875 -13.328125 C 7.773438 -13.742188 6.921875 -14.3125 5.984375 -15.03125 C 5.054688 -15.75 4.296875 -16.53125 3.703125 -17.375 C 3.117188 -18.226562 2.625 -19.265625 2.21875 -20.484375 C 1.8125 -21.710938 1.609375 -23.035156 1.609375 -24.453125 C 1.609375 -26.953125 2.359375 -29.207031 3.859375 -31.21875 C 5.359375 -33.238281 7.21875 -34.757812 9.4375 -35.78125 C 11.65625 -36.800781 13.945312 -37.3125 16.3125 -37.3125 C 19.613281 -37.3125 22.617188 -36.460938 25.328125 -34.765625 C 28.046875 -33.078125 29.875 -30.734375 30.8125 -27.734375 C 31.21875 -26.421875 31.097656 -25.140625 30.453125 -23.890625 C 29.816406 -22.648438 28.832031 -21.816406 27.5 -21.390625 Z M 27.5 -21.390625 "/></g></g></g></svg>